<mxfile host="Electron" agent="Mozilla/5.0 (Macintosh; Intel Mac OS X 10_15_7) AppleWebKit/537.36 (KHTML, like Gecko) draw.io/28.2.8 Chrome/140.0.7339.240 Electron/38.4.0 Safari/537.36" version="28.2.8">
  <diagram name="Page-1" id="_z7gy4E01NX3LDE39xjL">
    <mxGraphModel dx="1137" dy="831" grid="1" gridSize="10" guides="1" tooltips="1" connect="1" arrows="1" fold="1" page="1" pageScale="1" pageWidth="1100" pageHeight="850" math="0" shadow="0">
      <root>
        <mxCell id="0" />
        <object label="Sensors, Controllers, Lights" id="FBQwd6edi8yIUVr25xzs-198">
          <mxCell parent="0" />
        </object>
        <mxCell id="FBQwd6edi8yIUVr25xzs-204" value="&lt;font style=&quot;font-size: 11px;&quot;&gt;&lt;b style=&quot;&quot;&gt;controller&lt;/b&gt;&lt;/font&gt;&lt;div&gt;&lt;font style=&quot;font-size: 11px;&quot;&gt;&lt;b style=&quot;&quot;&gt;1&lt;/b&gt;&lt;/font&gt;&lt;/div&gt;" style="shape=process;whiteSpace=wrap;html=1;backgroundOutline=1;fillColor=#e1d5e7;strokeColor=#9673a6;" parent="FBQwd6edi8yIUVr25xzs-198" vertex="1">
          <mxGeometry x="960" y="570" width="70" height="30" as="geometry" />
        </mxCell>
        <mxCell id="FBQwd6edi8yIUVr25xzs-205" value="Laser" style="shape=or;whiteSpace=wrap;html=1;fillColor=#e1d5e7;strokeColor=#9673a6;" parent="FBQwd6edi8yIUVr25xzs-198" vertex="1">
          <mxGeometry x="977.5" y="650" width="35" height="30" as="geometry" />
        </mxCell>
        <mxCell id="FBQwd6edi8yIUVr25xzs-212" value="Laser" style="shape=or;whiteSpace=wrap;html=1;fillColor=#e1d5e7;strokeColor=#9673a6;" parent="FBQwd6edi8yIUVr25xzs-198" vertex="1">
          <mxGeometry x="230" y="480" width="35" height="30" as="geometry" />
        </mxCell>
        <mxCell id="FBQwd6edi8yIUVr25xzs-213" value="Laser" style="shape=or;whiteSpace=wrap;html=1;fillColor=#e1d5e7;strokeColor=#9673a6;" parent="FBQwd6edi8yIUVr25xzs-198" vertex="1">
          <mxGeometry x="307.5" y="680" width="35" height="30" as="geometry" />
        </mxCell>
        <mxCell id="j_DBNBZweOR7730Sv6lc-20" value="&lt;font style=&quot;font-size: 14px;&quot;&gt;Cemetery&lt;/font&gt;" style="text;html=1;align=center;verticalAlign=middle;whiteSpace=wrap;rounded=0;rotation=-80;" parent="FBQwd6edi8yIUVr25xzs-198" vertex="1">
          <mxGeometry x="930" y="470" width="60" height="30" as="geometry" />
        </mxCell>
        <mxCell id="FBQwd6edi8yIUVr25xzs-207" value="Laser" style="shape=or;whiteSpace=wrap;html=1;fillColor=#e1d5e7;strokeColor=#9673a6;" parent="FBQwd6edi8yIUVr25xzs-198" vertex="1">
          <mxGeometry x="470" y="530" width="35" height="30" as="geometry" />
        </mxCell>
        <mxCell id="oiR_8ByxjtIzJBIskn7z-8" value="&lt;font style=&quot;font-size: 11px;&quot;&gt;FOG&lt;/font&gt;&lt;div&gt;&lt;font style=&quot;font-size: 11px;&quot;&gt;Machine&lt;/font&gt;&lt;/div&gt;" style="ellipse;shape=cloud;whiteSpace=wrap;html=1;fillColor=#f5f5f5;strokeColor=#666666;gradientColor=#b3b3b3;" parent="FBQwd6edi8yIUVr25xzs-198" vertex="1">
          <mxGeometry x="350" y="410" width="70" height="50" as="geometry" />
        </mxCell>
        <mxCell id="oiR_8ByxjtIzJBIskn7z-9" value="&lt;font style=&quot;font-size: 11px;&quot;&gt;FOG&lt;/font&gt;&lt;div&gt;&lt;font style=&quot;font-size: 11px;&quot;&gt;Machine&lt;/font&gt;&lt;/div&gt;" style="ellipse;shape=cloud;whiteSpace=wrap;html=1;fillColor=#f5f5f5;strokeColor=#666666;gradientColor=#b3b3b3;" parent="FBQwd6edi8yIUVr25xzs-198" vertex="1">
          <mxGeometry x="730" y="400" width="70" height="50" as="geometry" />
        </mxCell>
        <mxCell id="oiR_8ByxjtIzJBIskn7z-10" value="&lt;font style=&quot;font-size: 11px;&quot;&gt;FOG&lt;/font&gt;&lt;div&gt;&lt;font style=&quot;font-size: 11px;&quot;&gt;Machine&lt;/font&gt;&lt;/div&gt;" style="ellipse;shape=cloud;whiteSpace=wrap;html=1;fillColor=#f5f5f5;strokeColor=#666666;gradientColor=#b3b3b3;" parent="FBQwd6edi8yIUVr25xzs-198" vertex="1">
          <mxGeometry x="40" y="730" width="70" height="50" as="geometry" />
        </mxCell>
        <mxCell id="oiR_8ByxjtIzJBIskn7z-16" value="&lt;font style=&quot;font-size: 9px;&quot;&gt;Power&lt;/font&gt;&lt;div&gt;&lt;font style=&quot;font-size: 9px;&quot;&gt;Strip&lt;/font&gt;&lt;/div&gt;" style="rhombus;whiteSpace=wrap;html=1;fillColor=#f8cecc;strokeColor=#b85450;" parent="FBQwd6edi8yIUVr25xzs-198" vertex="1">
          <mxGeometry x="12.5" y="560" width="50" height="50" as="geometry" />
        </mxCell>
        <mxCell id="oiR_8ByxjtIzJBIskn7z-21" value="&lt;font style=&quot;font-size: 9px;&quot;&gt;Power&lt;/font&gt;&lt;div&gt;&lt;font style=&quot;font-size: 9px;&quot;&gt;Strip&lt;/font&gt;&lt;/div&gt;" style="rhombus;whiteSpace=wrap;html=1;fillColor=#f8cecc;strokeColor=#b85450;" parent="FBQwd6edi8yIUVr25xzs-198" vertex="1">
          <mxGeometry x="290" y="560" width="50" height="50" as="geometry" />
        </mxCell>
        <mxCell id="oiR_8ByxjtIzJBIskn7z-22" value="&lt;font style=&quot;font-size: 9px;&quot;&gt;Power&lt;/font&gt;&lt;div&gt;&lt;font style=&quot;font-size: 9px;&quot;&gt;Strip&lt;/font&gt;&lt;/div&gt;" style="rhombus;whiteSpace=wrap;html=1;fillColor=#f8cecc;strokeColor=#b85450;" parent="FBQwd6edi8yIUVr25xzs-198" vertex="1">
          <mxGeometry x="446.75" y="375" width="50" height="50" as="geometry" />
        </mxCell>
        <mxCell id="oiR_8ByxjtIzJBIskn7z-23" value="&lt;font style=&quot;font-size: 9px;&quot;&gt;Power&lt;/font&gt;&lt;div&gt;&lt;font style=&quot;font-size: 9px;&quot;&gt;Strip&lt;/font&gt;&lt;/div&gt;" style="rhombus;whiteSpace=wrap;html=1;fillColor=#f8cecc;strokeColor=#b85450;" parent="FBQwd6edi8yIUVr25xzs-198" vertex="1">
          <mxGeometry x="698" y="350" width="50" height="50" as="geometry" />
        </mxCell>
        <mxCell id="oiR_8ByxjtIzJBIskn7z-7" value="&lt;font style=&quot;font-size: 11px;&quot;&gt;FOG&lt;/font&gt;&lt;div&gt;&lt;font style=&quot;font-size: 11px;&quot;&gt;Machine&lt;/font&gt;&lt;/div&gt;" style="ellipse;shape=cloud;whiteSpace=wrap;html=1;fillColor=#f5f5f5;strokeColor=#666666;gradientColor=#b3b3b3;" parent="FBQwd6edi8yIUVr25xzs-198" vertex="1">
          <mxGeometry x="440" y="290" width="70" height="50" as="geometry" />
        </mxCell>
        <mxCell id="oiR_8ByxjtIzJBIskn7z-64" value="" style="html=1;verticalLabelPosition=bottom;align=center;labelBackgroundColor=#ffffff;verticalAlign=top;strokeWidth=2;strokeColor=#d6b656;shadow=0;dashed=0;shape=mxgraph.ios7.icons.lightbulb;fillColor=#fff2cc;" parent="FBQwd6edi8yIUVr25xzs-198" vertex="1">
          <mxGeometry x="850" y="470" width="20" height="30" as="geometry" />
        </mxCell>
        <mxCell id="oiR_8ByxjtIzJBIskn7z-65" value="" style="html=1;verticalLabelPosition=bottom;align=center;labelBackgroundColor=#ffffff;verticalAlign=top;strokeWidth=2;strokeColor=#d6b656;shadow=0;dashed=0;shape=mxgraph.ios7.icons.lightbulb;fillColor=#fff2cc;" parent="FBQwd6edi8yIUVr25xzs-198" vertex="1">
          <mxGeometry x="700" y="480" width="20" height="30" as="geometry" />
        </mxCell>
        <mxCell id="oiR_8ByxjtIzJBIskn7z-63" value="" style="html=1;verticalLabelPosition=bottom;align=center;labelBackgroundColor=#ffffff;verticalAlign=top;strokeWidth=2;strokeColor=#d6b656;shadow=0;dashed=0;shape=mxgraph.ios7.icons.lightbulb;fillColor=#fff2cc;" parent="FBQwd6edi8yIUVr25xzs-198" vertex="1">
          <mxGeometry x="380" y="600" width="20" height="30" as="geometry" />
        </mxCell>
        <mxCell id="oiR_8ByxjtIzJBIskn7z-62" value="" style="html=1;verticalLabelPosition=bottom;align=center;labelBackgroundColor=#ffffff;verticalAlign=top;strokeWidth=2;strokeColor=#d6b656;shadow=0;dashed=0;shape=mxgraph.ios7.icons.lightbulb;fillColor=#fff2cc;" parent="FBQwd6edi8yIUVr25xzs-198" vertex="1">
          <mxGeometry x="242.5" y="660" width="20" height="30" as="geometry" />
        </mxCell>
        <mxCell id="oiR_8ByxjtIzJBIskn7z-51" value="Laser" style="shape=or;whiteSpace=wrap;html=1;fillColor=#e1d5e7;strokeColor=#9673a6;" parent="FBQwd6edi8yIUVr25xzs-198" vertex="1">
          <mxGeometry x="965" y="380" width="35" height="30" as="geometry" />
        </mxCell>
        <mxCell id="oiR_8ByxjtIzJBIskn7z-71" value="&lt;font style=&quot;font-size: 11px;&quot;&gt;&lt;b style=&quot;&quot;&gt;controller&lt;/b&gt;&lt;/font&gt;&lt;div&gt;&lt;span style=&quot;font-size: 11px;&quot;&gt;&lt;b&gt;5&lt;/b&gt;&lt;/span&gt;&lt;/div&gt;" style="shape=process;whiteSpace=wrap;html=1;backgroundOutline=1;fillColor=#e1d5e7;strokeColor=#9673a6;rotation=-90;" parent="FBQwd6edi8yIUVr25xzs-198" vertex="1">
          <mxGeometry x="790" y="350" width="70" height="30" as="geometry" />
        </mxCell>
        <mxCell id="oiR_8ByxjtIzJBIskn7z-72" value="&lt;font style=&quot;font-size: 11px;&quot;&gt;&lt;b style=&quot;&quot;&gt;controller&lt;/b&gt;&lt;/font&gt;&lt;div&gt;&lt;span style=&quot;font-size: 11px;&quot;&gt;&lt;b&gt;4&lt;/b&gt;&lt;/span&gt;&lt;/div&gt;" style="shape=process;whiteSpace=wrap;html=1;backgroundOutline=1;fillColor=#e1d5e7;strokeColor=#9673a6;" parent="FBQwd6edi8yIUVr25xzs-198" vertex="1">
          <mxGeometry x="460" y="450" width="70" height="30" as="geometry" />
        </mxCell>
        <mxCell id="oiR_8ByxjtIzJBIskn7z-73" value="&lt;font style=&quot;font-size: 11px;&quot;&gt;&lt;b style=&quot;&quot;&gt;controller&lt;/b&gt;&lt;/font&gt;&lt;div&gt;&lt;span style=&quot;font-size: 11px;&quot;&gt;&lt;b&gt;3&lt;/b&gt;&lt;/span&gt;&lt;/div&gt;" style="shape=process;whiteSpace=wrap;html=1;backgroundOutline=1;fillColor=#e1d5e7;strokeColor=#9673a6;" parent="FBQwd6edi8yIUVr25xzs-198" vertex="1">
          <mxGeometry x="210" y="580" width="70" height="30" as="geometry" />
        </mxCell>
        <mxCell id="oiR_8ByxjtIzJBIskn7z-74" value="&lt;font style=&quot;font-size: 11px;&quot;&gt;&lt;b style=&quot;&quot;&gt;controller&lt;/b&gt;&lt;/font&gt;&lt;div&gt;&lt;span style=&quot;font-size: 11px;&quot;&gt;&lt;b&gt;2&lt;/b&gt;&lt;/span&gt;&lt;/div&gt;" style="shape=process;whiteSpace=wrap;html=1;backgroundOutline=1;fillColor=#e1d5e7;strokeColor=#9673a6;" parent="FBQwd6edi8yIUVr25xzs-198" vertex="1">
          <mxGeometry x="290" y="610" width="70" height="30" as="geometry" />
        </mxCell>
        <mxCell id="ZZRe91LmwjxZvAVJAlmy-1" value="" style="html=1;verticalLabelPosition=bottom;align=center;labelBackgroundColor=#ffffff;verticalAlign=top;strokeWidth=2;strokeColor=#d6b656;shadow=0;dashed=0;shape=mxgraph.ios7.icons.lightbulb;fillColor=#fff2cc;" parent="FBQwd6edi8yIUVr25xzs-198" vertex="1">
          <mxGeometry x="100" y="100" width="20" height="30" as="geometry" />
        </mxCell>
        <mxCell id="6FNTZ4-uX91UsCruWC7p-1" value="27" style="text;html=1;whiteSpace=wrap;strokeColor=none;fillColor=none;align=center;verticalAlign=middle;rounded=0;" vertex="1" parent="FBQwd6edi8yIUVr25xzs-198">
          <mxGeometry x="342.5" y="530" width="30" height="30" as="geometry" />
        </mxCell>
        <mxCell id="6FNTZ4-uX91UsCruWC7p-4" value="&lt;div&gt;33&lt;/div&gt;" style="text;html=1;align=center;verticalAlign=middle;whiteSpace=wrap;rounded=0;" vertex="1" parent="FBQwd6edi8yIUVr25xzs-198">
          <mxGeometry x="160" y="524" width="30" height="30" as="geometry" />
        </mxCell>
        <mxCell id="6FNTZ4-uX91UsCruWC7p-5" value="&lt;div&gt;32&lt;/div&gt;" style="text;html=1;align=center;verticalAlign=middle;whiteSpace=wrap;rounded=0;" vertex="1" parent="FBQwd6edi8yIUVr25xzs-198">
          <mxGeometry x="210" y="550" width="30" height="30" as="geometry" />
        </mxCell>
        <mxCell id="6FNTZ4-uX91UsCruWC7p-6" value="39" style="text;html=1;align=center;verticalAlign=middle;whiteSpace=wrap;rounded=0;" vertex="1" parent="FBQwd6edi8yIUVr25xzs-198">
          <mxGeometry x="375" y="534" width="30" height="30" as="geometry" />
        </mxCell>
        <mxCell id="oiR_8ByxjtIzJBIskn7z-39" value="Animatronics" parent="0" />
        <mxCell id="FBQwd6edi8yIUVr25xzs-157" value="&lt;font style=&quot;font-size: 17px;&quot;&gt;&lt;b style=&quot;&quot;&gt;R&lt;/b&gt;&lt;/font&gt;" style="text;html=1;align=center;verticalAlign=middle;whiteSpace=wrap;rounded=0;" parent="oiR_8ByxjtIzJBIskn7z-39" vertex="1">
          <mxGeometry x="1015" y="200" width="40" height="30" as="geometry" />
        </mxCell>
        <mxCell id="FBQwd6edi8yIUVr25xzs-156" value="&lt;font style=&quot;font-size: 17px;&quot;&gt;&lt;b style=&quot;&quot;&gt;Q&lt;/b&gt;&lt;/font&gt;" style="text;html=1;align=center;verticalAlign=middle;whiteSpace=wrap;rounded=0;" parent="oiR_8ByxjtIzJBIskn7z-39" vertex="1">
          <mxGeometry x="1004" y="60" width="40" height="30" as="geometry" />
        </mxCell>
        <mxCell id="oiR_8ByxjtIzJBIskn7z-3" value="&lt;font style=&quot;font-size: 18px;&quot;&gt;Axe&lt;/font&gt;" style="text;html=1;align=center;verticalAlign=middle;whiteSpace=wrap;rounded=0;rotation=-90;" parent="oiR_8ByxjtIzJBIskn7z-39" vertex="1">
          <mxGeometry x="930" y="140" width="60" height="30" as="geometry" />
        </mxCell>
        <mxCell id="FBQwd6edi8yIUVr25xzs-158" value="&lt;font face=&quot;Times New Roman&quot; style=&quot;font-size: 18px;&quot;&gt;&lt;b style=&quot;&quot;&gt;II&lt;/b&gt;&lt;/font&gt;" style="text;html=1;align=center;verticalAlign=middle;whiteSpace=wrap;rounded=0;" parent="oiR_8ByxjtIzJBIskn7z-39" vertex="1">
          <mxGeometry x="370" y="50" width="40" height="30" as="geometry" />
        </mxCell>
        <mxCell id="FBQwd6edi8yIUVr25xzs-87" value="&lt;font style=&quot;font-size: 17px;&quot;&gt;&lt;b style=&quot;&quot;&gt;O&lt;/b&gt;&lt;/font&gt;" style="text;html=1;align=center;verticalAlign=middle;whiteSpace=wrap;rounded=0;" parent="oiR_8ByxjtIzJBIskn7z-39" vertex="1">
          <mxGeometry x="340" y="280" width="40" height="30" as="geometry" />
        </mxCell>
        <mxCell id="FBQwd6edi8yIUVr25xzs-155" value="&lt;font style=&quot;font-size: 17px;&quot;&gt;&lt;b style=&quot;&quot;&gt;P&lt;/b&gt;&lt;/font&gt;" style="text;html=1;align=center;verticalAlign=middle;whiteSpace=wrap;rounded=0;" parent="oiR_8ByxjtIzJBIskn7z-39" vertex="1">
          <mxGeometry x="690" y="80" width="40" height="30" as="geometry" />
        </mxCell>
        <mxCell id="FBQwd6edi8yIUVr25xzs-88" value="&lt;span style=&quot;font-size: 17px;&quot;&gt;&lt;b&gt;HH&lt;/b&gt;&lt;/span&gt;" style="text;html=1;align=center;verticalAlign=middle;whiteSpace=wrap;rounded=0;" parent="oiR_8ByxjtIzJBIskn7z-39" vertex="1">
          <mxGeometry x="930" y="220" width="40" height="30" as="geometry" />
        </mxCell>
        <mxCell id="FBQwd6edi8yIUVr25xzs-86" value="&lt;font style=&quot;font-size: 17px;&quot;&gt;&lt;b style=&quot;&quot;&gt;N&lt;/b&gt;&lt;/font&gt;" style="text;html=1;align=center;verticalAlign=middle;whiteSpace=wrap;rounded=0;" parent="oiR_8ByxjtIzJBIskn7z-39" vertex="1">
          <mxGeometry x="680" y="260" width="40" height="30" as="geometry" />
        </mxCell>
        <mxCell id="FBQwd6edi8yIUVr25xzs-89" value="&lt;font style=&quot;font-size: 17px;&quot;&gt;&lt;b style=&quot;&quot;&gt;GG&lt;/b&gt;&lt;/font&gt;" style="text;html=1;align=center;verticalAlign=middle;whiteSpace=wrap;rounded=0;" parent="oiR_8ByxjtIzJBIskn7z-39" vertex="1">
          <mxGeometry x="970" y="490" width="40" height="30" as="geometry" />
        </mxCell>
        <mxCell id="FBQwd6edi8yIUVr25xzs-95" value="&lt;font style=&quot;font-size: 17px;&quot;&gt;&lt;b style=&quot;&quot;&gt;AA&lt;/b&gt;&lt;/font&gt;" style="text;html=1;align=center;verticalAlign=middle;whiteSpace=wrap;rounded=0;" parent="oiR_8ByxjtIzJBIskn7z-39" vertex="1">
          <mxGeometry x="1044" y="550" width="40" height="30" as="geometry" />
        </mxCell>
        <mxCell id="FBQwd6edi8yIUVr25xzs-96" value="&lt;font style=&quot;font-size: 17px;&quot;&gt;&lt;b style=&quot;&quot;&gt;BB&lt;/b&gt;&lt;/font&gt;" style="text;html=1;align=center;verticalAlign=middle;whiteSpace=wrap;rounded=0;" parent="oiR_8ByxjtIzJBIskn7z-39" vertex="1">
          <mxGeometry x="994" y="800" width="40" height="30" as="geometry" />
        </mxCell>
        <mxCell id="FBQwd6edi8yIUVr25xzs-42" value="&lt;font style=&quot;font-size: 17px;&quot;&gt;&lt;b style=&quot;&quot;&gt;B&lt;/b&gt;&lt;/font&gt;" style="text;html=1;align=center;verticalAlign=middle;whiteSpace=wrap;rounded=0;" parent="oiR_8ByxjtIzJBIskn7z-39" vertex="1">
          <mxGeometry x="850" y="670" width="40" height="30" as="geometry" />
        </mxCell>
        <mxCell id="FBQwd6edi8yIUVr25xzs-47" value="&lt;font style=&quot;font-size: 17px;&quot;&gt;&lt;b style=&quot;&quot;&gt;A&lt;/b&gt;&lt;/font&gt;" style="text;html=1;align=center;verticalAlign=middle;whiteSpace=wrap;rounded=0;" parent="oiR_8ByxjtIzJBIskn7z-39" vertex="1">
          <mxGeometry x="920" y="560" width="40" height="30" as="geometry" />
        </mxCell>
        <mxCell id="FBQwd6edi8yIUVr25xzs-128" value="&lt;font style=&quot;font-size: 17px;&quot;&gt;&lt;b style=&quot;&quot;&gt;J&lt;/b&gt;&lt;/font&gt;" style="text;html=1;align=center;verticalAlign=middle;whiteSpace=wrap;rounded=0;" parent="oiR_8ByxjtIzJBIskn7z-39" vertex="1">
          <mxGeometry x="800" y="480" width="40" height="30" as="geometry" />
        </mxCell>
        <mxCell id="FBQwd6edi8yIUVr25xzs-129" value="&lt;font style=&quot;font-size: 17px;&quot;&gt;&lt;b style=&quot;&quot;&gt;I&lt;/b&gt;&lt;/font&gt;" style="text;html=1;align=center;verticalAlign=middle;whiteSpace=wrap;rounded=0;" parent="oiR_8ByxjtIzJBIskn7z-39" vertex="1">
          <mxGeometry x="670" y="480" width="40" height="30" as="geometry" />
        </mxCell>
        <mxCell id="FBQwd6edi8yIUVr25xzs-83" value="&lt;font style=&quot;font-size: 17px;&quot;&gt;&lt;b style=&quot;&quot;&gt;D&lt;/b&gt;&lt;/font&gt;" style="text;html=1;align=center;verticalAlign=middle;whiteSpace=wrap;rounded=0;" parent="oiR_8ByxjtIzJBIskn7z-39" vertex="1">
          <mxGeometry x="640" y="560" width="40" height="30" as="geometry" />
        </mxCell>
        <mxCell id="FBQwd6edi8yIUVr25xzs-50" value="&lt;font style=&quot;font-size: 17px;&quot;&gt;&lt;b style=&quot;&quot;&gt;C&lt;/b&gt;&lt;/font&gt;" style="text;html=1;align=center;verticalAlign=middle;whiteSpace=wrap;rounded=0;" parent="oiR_8ByxjtIzJBIskn7z-39" vertex="1">
          <mxGeometry x="700" y="670" width="40" height="30" as="geometry" />
        </mxCell>
        <mxCell id="FBQwd6edi8yIUVr25xzs-112" value="&lt;font style=&quot;font-size: 17px;&quot;&gt;&lt;b style=&quot;&quot;&gt;H&lt;/b&gt;&lt;/font&gt;" style="text;html=1;align=center;verticalAlign=middle;whiteSpace=wrap;rounded=0;" parent="oiR_8ByxjtIzJBIskn7z-39" vertex="1">
          <mxGeometry x="590" y="530" width="40" height="30" as="geometry" />
        </mxCell>
        <mxCell id="FBQwd6edi8yIUVr25xzs-118" value="&lt;font style=&quot;font-size: 17px;&quot;&gt;&lt;b style=&quot;&quot;&gt;G&lt;/b&gt;&lt;/font&gt;" style="text;html=1;align=center;verticalAlign=middle;whiteSpace=wrap;rounded=0;" parent="oiR_8ByxjtIzJBIskn7z-39" vertex="1">
          <mxGeometry x="521" y="480" width="40" height="30" as="geometry" />
        </mxCell>
        <mxCell id="FBQwd6edi8yIUVr25xzs-123" value="&lt;font style=&quot;font-size: 17px;&quot;&gt;&lt;b style=&quot;&quot;&gt;F&lt;/b&gt;&lt;/font&gt;" style="text;html=1;align=center;verticalAlign=middle;whiteSpace=wrap;rounded=0;" parent="oiR_8ByxjtIzJBIskn7z-39" vertex="1">
          <mxGeometry x="370" y="520" width="40" height="30" as="geometry" />
        </mxCell>
        <mxCell id="FBQwd6edi8yIUVr25xzs-97" value="&lt;font style=&quot;font-size: 17px;&quot;&gt;&lt;b style=&quot;&quot;&gt;CC&lt;/b&gt;&lt;/font&gt;" style="text;html=1;align=center;verticalAlign=middle;whiteSpace=wrap;rounded=0;" parent="oiR_8ByxjtIzJBIskn7z-39" vertex="1">
          <mxGeometry x="370" y="570" width="40" height="30" as="geometry" />
        </mxCell>
        <mxCell id="FBQwd6edi8yIUVr25xzs-163" value="&lt;span style=&quot;font-size: 17px;&quot;&gt;&lt;b&gt;FF&lt;/b&gt;&lt;/span&gt;" style="text;html=1;align=center;verticalAlign=middle;whiteSpace=wrap;rounded=0;" parent="oiR_8ByxjtIzJBIskn7z-39" vertex="1">
          <mxGeometry x="334" y="570" width="40" height="30" as="geometry" />
        </mxCell>
        <mxCell id="FBQwd6edi8yIUVr25xzs-217" value="&lt;b&gt;&lt;font style=&quot;font-size: 17px;&quot;&gt;E&lt;/font&gt;&lt;/b&gt;" style="text;html=1;align=center;verticalAlign=middle;whiteSpace=wrap;rounded=0;" parent="oiR_8ByxjtIzJBIskn7z-39" vertex="1">
          <mxGeometry x="210" y="680" width="40" height="30" as="geometry" />
        </mxCell>
        <mxCell id="FBQwd6edi8yIUVr25xzs-160" value="&lt;font style=&quot;font-size: 17px;&quot;&gt;&lt;b style=&quot;&quot;&gt;EE&lt;/b&gt;&lt;/font&gt;" style="text;html=1;align=center;verticalAlign=middle;whiteSpace=wrap;rounded=0;" parent="oiR_8ByxjtIzJBIskn7z-39" vertex="1">
          <mxGeometry x="150" y="570" width="40" height="30" as="geometry" />
        </mxCell>
        <mxCell id="FBQwd6edi8yIUVr25xzs-159" value="&lt;font style=&quot;font-size: 17px;&quot;&gt;&lt;b style=&quot;&quot;&gt;DD&lt;/b&gt;&lt;/font&gt;" style="text;html=1;align=center;verticalAlign=middle;whiteSpace=wrap;rounded=0;" parent="oiR_8ByxjtIzJBIskn7z-39" vertex="1">
          <mxGeometry x="80" y="610" width="40" height="30" as="geometry" />
        </mxCell>
        <mxCell id="oiR_8ByxjtIzJBIskn7z-40" value="" style="shape=card;whiteSpace=wrap;html=1;" parent="oiR_8ByxjtIzJBIskn7z-39" vertex="1">
          <mxGeometry x="960" y="310" width="30" height="60" as="geometry" />
        </mxCell>
        <mxCell id="oiR_8ByxjtIzJBIskn7z-50" value="&lt;font style=&quot;font-size: 17px;&quot;&gt;&lt;b style=&quot;&quot;&gt;L&lt;/b&gt;&lt;/font&gt;" style="text;html=1;align=center;verticalAlign=middle;whiteSpace=wrap;rounded=0;" parent="oiR_8ByxjtIzJBIskn7z-39" vertex="1">
          <mxGeometry x="930" y="520" width="40" height="30" as="geometry" />
        </mxCell>
        <mxCell id="ZZRe91LmwjxZvAVJAlmy-17" value="" style="shape=mxgraph.signs.tech.cell_phone;html=1;pointerEvents=1;fillColor=#ffcd28;strokeColor=#d79b00;verticalLabelPosition=bottom;verticalAlign=top;align=center;sketch=0;gradientColor=#ffa500;" parent="oiR_8ByxjtIzJBIskn7z-39" vertex="1">
          <mxGeometry x="330" y="282" width="17" height="28" as="geometry" />
        </mxCell>
        <mxCell id="ZZRe91LmwjxZvAVJAlmy-16" value="" style="shape=mxgraph.signs.tech.cell_phone;html=1;pointerEvents=1;fillColor=#ffcd28;strokeColor=#d79b00;verticalLabelPosition=bottom;verticalAlign=top;align=center;sketch=0;gradientColor=#ffa500;" parent="oiR_8ByxjtIzJBIskn7z-39" vertex="1">
          <mxGeometry x="410" y="30" width="17" height="28" as="geometry" />
        </mxCell>
        <mxCell id="ZZRe91LmwjxZvAVJAlmy-18" value="" style="shape=mxgraph.signs.tech.cell_phone;html=1;pointerEvents=1;fillColor=#ffcd28;strokeColor=#d79b00;verticalLabelPosition=bottom;verticalAlign=top;align=center;sketch=0;gradientColor=#ffa500;" parent="oiR_8ByxjtIzJBIskn7z-39" vertex="1">
          <mxGeometry x="1030" y="40" width="17" height="28" as="geometry" />
        </mxCell>
        <mxCell id="oiR_8ByxjtIzJBIskn7z-84" value="&lt;font style=&quot;font-size: 17px;&quot;&gt;&lt;b style=&quot;&quot;&gt;K&lt;/b&gt;&lt;/font&gt;" style="text;html=1;align=center;verticalAlign=middle;whiteSpace=wrap;rounded=0;" parent="oiR_8ByxjtIzJBIskn7z-39" vertex="1">
          <mxGeometry x="840" y="450" width="40" height="10" as="geometry" />
        </mxCell>
        <mxCell id="UFdXJzNGnmkt2AcSdSOl-4" value="&lt;font style=&quot;font-size: 17px;&quot;&gt;&lt;b style=&quot;&quot;&gt;M&lt;/b&gt;&lt;/font&gt;" style="text;html=1;align=center;verticalAlign=middle;whiteSpace=wrap;rounded=0;" parent="oiR_8ByxjtIzJBIskn7z-39" vertex="1">
          <mxGeometry x="965" y="420" width="40" height="30" as="geometry" />
        </mxCell>
        <mxCell id="1" value="Walls" parent="0" />
        <mxCell id="FBQwd6edi8yIUVr25xzs-16" value="" style="endArrow=none;html=1;rounded=0;strokeWidth=2;" parent="1" edge="1">
          <mxGeometry width="50" height="50" relative="1" as="geometry">
            <mxPoint x="320" y="320" as="sourcePoint" />
            <mxPoint x="400" y="320" as="targetPoint" />
          </mxGeometry>
        </mxCell>
        <mxCell id="FBQwd6edi8yIUVr25xzs-26" value="" style="endArrow=none;html=1;rounded=0;" parent="1" edge="1">
          <mxGeometry width="50" height="50" relative="1" as="geometry">
            <mxPoint x="400" y="320" as="sourcePoint" />
            <mxPoint x="400" y="280" as="targetPoint" />
          </mxGeometry>
        </mxCell>
        <mxCell id="FBQwd6edi8yIUVr25xzs-29" value="" style="endArrow=none;html=1;rounded=0;" parent="1" edge="1">
          <mxGeometry width="50" height="50" relative="1" as="geometry">
            <mxPoint x="720" y="280" as="sourcePoint" />
            <mxPoint x="720" y="250" as="targetPoint" />
          </mxGeometry>
        </mxCell>
        <mxCell id="FBQwd6edi8yIUVr25xzs-32" value="&lt;span style=&quot;color: rgba(0, 0, 0, 0); font-family: monospace; font-size: 0px; text-align: start; background-color: rgb(236, 236, 236);&quot;&gt;%3CmxGraphModel%3E%3Croot%3E%3CmxCell%20id%3D%220%22%2F%3E%3CmxCell%20id%3D%221%22%20parent%3D%220%22%2F%3E%3CmxCell%20id%3D%222%22%20value%3D%22%22%20style%3D%22endArrow%3Dnone%3Bhtml%3D1%3Brounded%3D0%3BentryX%3D0%3BentryY%3D1%3BentryDx%3D0%3BentryDy%3D0%3B%22%20edge%3D%221%22%20parent%3D%221%22%3E%3CmxGeometry%20width%3D%2250%22%20height%3D%2250%22%20relative%3D%221%22%20as%3D%22geometry%22%3E%3CmxPoint%20x%3D%22840%22%20y%3D%22560%22%20as%3D%22sourcePoint%22%2F%3E%3CmxPoint%20x%3D%22960%22%20y%3D%22560%22%20as%3D%22targetPoint%22%2F%3E%3C%2FmxGeometry%3E%3C%2FmxCell%3E%3C%2Froot%3E%3C%2FmxGraphModel%3E&lt;/span&gt;&lt;span style=&quot;color: rgba(0, 0, 0, 0); font-family: monospace; font-size: 0px; text-align: start; background-color: rgb(236, 236, 236);&quot;&gt;%3CmxGraphModel%3E%3Croot%3E%3CmxCell%20id%3D%220%22%2F%3E%3CmxCell%20id%3D%221%22%20parent%3D%220%22%2F%3E%3CmxCell%20id%3D%222%22%20value%3D%22%22%20style%3D%22endArrow%3Dnone%3Bhtml%3D1%3Brounded%3D0%3BentryX%3D0%3BentryY%3D1%3BentryDx%3D0%3BentryDy%3D0%3B%22%20edge%3D%221%22%20parent%3D%221%22%3E%3CmxGeometry%20width%3D%2250%22%20height%3D%2250%22%20relative%3D%221%22%20as%3D%22geometry%22%3E%3CmxPoint%20x%3D%22840%22%20y%3D%22560%22%20as%3D%22sourcePoint%22%2F%3E%3CmxPoint%20x%3D%22960%22%20y%3D%22560%22%20as%3D%22targetPoint%22%2F%3E%3C%2FmxGeometry%3E%3C%2FmxCell%3E%3C%2Froot%3E%3C%2FmxGraphModel%3E&lt;/span&gt;" style="endArrow=none;html=1;rounded=0;entryX=0;entryY=1;entryDx=0;entryDy=0;" parent="1" target="FBQwd6edi8yIUVr25xzs-72" edge="1">
          <mxGeometry width="50" height="50" relative="1" as="geometry">
            <mxPoint x="840" y="560" as="sourcePoint" />
            <mxPoint x="1030" y="560" as="targetPoint" />
          </mxGeometry>
        </mxCell>
        <mxCell id="FBQwd6edi8yIUVr25xzs-33" value="" style="endArrow=none;html=1;rounded=0;" parent="1" edge="1">
          <mxGeometry width="50" height="50" relative="1" as="geometry">
            <mxPoint x="1020" y="750" as="sourcePoint" />
            <mxPoint x="1020" y="700" as="targetPoint" />
          </mxGeometry>
        </mxCell>
        <mxCell id="FBQwd6edi8yIUVr25xzs-34" value="" style="endArrow=none;html=1;rounded=0;strokeWidth=2;" parent="1" edge="1">
          <mxGeometry width="50" height="50" relative="1" as="geometry">
            <mxPoint x="960" y="700" as="sourcePoint" />
            <mxPoint x="1020" y="700" as="targetPoint" />
          </mxGeometry>
        </mxCell>
        <mxCell id="FBQwd6edi8yIUVr25xzs-35" value="" style="endArrow=none;html=1;rounded=0;" parent="1" edge="1">
          <mxGeometry width="50" height="50" relative="1" as="geometry">
            <mxPoint x="960" y="590" as="sourcePoint" />
            <mxPoint x="960" y="560" as="targetPoint" />
          </mxGeometry>
        </mxCell>
        <mxCell id="FBQwd6edi8yIUVr25xzs-37" value="" style="endArrow=none;html=1;rounded=0;" parent="1" edge="1">
          <mxGeometry width="50" height="50" relative="1" as="geometry">
            <mxPoint x="900" y="700" as="sourcePoint" />
            <mxPoint x="900" y="670" as="targetPoint" />
          </mxGeometry>
        </mxCell>
        <mxCell id="FBQwd6edi8yIUVr25xzs-38" value="" style="endArrow=none;html=1;rounded=0;" parent="1" edge="1">
          <mxGeometry width="50" height="50" relative="1" as="geometry">
            <mxPoint x="900" y="700" as="sourcePoint" />
            <mxPoint x="960" y="700" as="targetPoint" />
          </mxGeometry>
        </mxCell>
        <mxCell id="FBQwd6edi8yIUVr25xzs-39" value="" style="endArrow=none;html=1;rounded=0;strokeWidth=2;" parent="1" edge="1">
          <mxGeometry width="50" height="50" relative="1" as="geometry">
            <mxPoint x="750" y="700" as="sourcePoint" />
            <mxPoint x="850" y="700" as="targetPoint" />
          </mxGeometry>
        </mxCell>
        <mxCell id="FBQwd6edi8yIUVr25xzs-40" value="" style="endArrow=none;html=1;rounded=0;" parent="1" edge="1">
          <mxGeometry width="50" height="50" relative="1" as="geometry">
            <mxPoint x="750" y="700" as="sourcePoint" />
            <mxPoint x="750" y="670" as="targetPoint" />
          </mxGeometry>
        </mxCell>
        <mxCell id="FBQwd6edi8yIUVr25xzs-52" value="" style="endArrow=none;html=1;rounded=0;" parent="1" source="oiR_8ByxjtIzJBIskn7z-17" edge="1">
          <mxGeometry width="50" height="50" relative="1" as="geometry">
            <mxPoint x="1010" y="560" as="sourcePoint" />
            <mxPoint x="1000" y="360" as="targetPoint" />
          </mxGeometry>
        </mxCell>
        <mxCell id="FBQwd6edi8yIUVr25xzs-55" value="" style="endArrow=none;html=1;rounded=0;" parent="1" edge="1">
          <mxGeometry width="50" height="50" relative="1" as="geometry">
            <mxPoint x="710" y="200" as="sourcePoint" />
            <mxPoint x="980" y="200" as="targetPoint" />
          </mxGeometry>
        </mxCell>
        <mxCell id="FBQwd6edi8yIUVr25xzs-59" value="10" style="text;html=1;align=center;verticalAlign=middle;whiteSpace=wrap;rounded=0;" parent="1" vertex="1">
          <mxGeometry x="770" y="290" width="30" height="30" as="geometry" />
        </mxCell>
        <mxCell id="FBQwd6edi8yIUVr25xzs-60" value="9" style="text;html=1;align=center;verticalAlign=middle;whiteSpace=wrap;rounded=0;" parent="1" vertex="1">
          <mxGeometry x="810" y="400" width="40" height="30" as="geometry" />
        </mxCell>
        <mxCell id="FBQwd6edi8yIUVr25xzs-70" value="18" style="text;html=1;align=center;verticalAlign=middle;whiteSpace=wrap;rounded=0;" parent="1" vertex="1">
          <mxGeometry x="984" y="450" width="60" height="30" as="geometry" />
        </mxCell>
        <mxCell id="FBQwd6edi8yIUVr25xzs-71" value="" style="endArrow=none;html=1;rounded=0;" parent="1" edge="1">
          <mxGeometry width="50" height="50" relative="1" as="geometry">
            <mxPoint x="799" y="510" as="sourcePoint" />
            <mxPoint x="799.17" y="480" as="targetPoint" />
          </mxGeometry>
        </mxCell>
        <mxCell id="FBQwd6edi8yIUVr25xzs-72" value="19" style="text;html=1;align=center;verticalAlign=middle;whiteSpace=wrap;rounded=0;" parent="1" vertex="1">
          <mxGeometry x="960" y="530" width="30" height="30" as="geometry" />
        </mxCell>
        <mxCell id="FBQwd6edi8yIUVr25xzs-73" value="20" style="text;html=1;align=center;verticalAlign=middle;whiteSpace=wrap;rounded=0;" parent="1" vertex="1">
          <mxGeometry x="870" y="530" width="30" height="30" as="geometry" />
        </mxCell>
        <mxCell id="FBQwd6edi8yIUVr25xzs-74" value="21" style="text;html=1;align=center;verticalAlign=middle;whiteSpace=wrap;rounded=0;" parent="1" vertex="1">
          <mxGeometry x="760" y="530" width="30" height="30" as="geometry" />
        </mxCell>
        <mxCell id="FBQwd6edi8yIUVr25xzs-75" value="" style="endArrow=none;html=1;rounded=0;strokeWidth=2;" parent="1" edge="1">
          <mxGeometry width="50" height="50" relative="1" as="geometry">
            <mxPoint x="960" y="560" as="sourcePoint" />
            <mxPoint x="1030" y="560" as="targetPoint" />
          </mxGeometry>
        </mxCell>
        <mxCell id="FBQwd6edi8yIUVr25xzs-76" value="&lt;span style=&quot;color: rgba(0, 0, 0, 0); font-family: monospace; font-size: 0px; text-align: start; background-color: rgb(236, 236, 236);&quot;&gt;%3CmxGraphModel%3E%3Croot%3E%3CmxCell%20id%3D%220%22%2F%3E%3CmxCell%20id%3D%221%22%20parent%3D%220%22%2F%3E%3CmxCell%20id%3D%222%22%20value%3D%22%22%20style%3D%22endArrow%3Dnone%3Bhtml%3D1%3Brounded%3D0%3BentryX%3D0%3BentryY%3D1%3BentryDx%3D0%3BentryDy%3D0%3B%22%20edge%3D%221%22%20parent%3D%221%22%3E%3CmxGeometry%20width%3D%2250%22%20height%3D%2250%22%20relative%3D%221%22%20as%3D%22geometry%22%3E%3CmxPoint%20x%3D%22840%22%20y%3D%22560%22%20as%3D%22sourcePoint%22%2F%3E%3CmxPoint%20x%3D%22960%22%20y%3D%22560%22%20as%3D%22targetPoint%22%2F%3E%3C%2FmxGeometry%3E%3C%2FmxCell%3E%3C%2Froot%3E%3C%2FmxGraphModel%3E&lt;/span&gt;&lt;span style=&quot;color: rgba(0, 0, 0, 0); font-family: monospace; font-size: 0px; text-align: start; background-color: rgb(236, 236, 236);&quot;&gt;%3CmxGraphModel%3E%3Croot%3E%3CmxCell%20id%3D%220%22%2F%3E%3CmxCell%20id%3D%221%22%20parent%3D%220%22%2F%3E%3CmxCell%20id%3D%222%22%20value%3D%22%22%20style%3D%22endArrow%3Dnone%3Bhtml%3D1%3Brounded%3D0%3BentryX%3D0%3BentryY%3D1%3BentryDx%3D0%3BentryDy%3D0%3B%22%20edge%3D%221%22%20parent%3D%221%22%3E%3CmxGeometry%20width%3D%2250%22%20height%3D%2250%22%20relative%3D%221%22%20as%3D%22geometry%22%3E%3CmxPoint%20x%3D%22840%22%20y%3D%22560%22%20as%3D%22sourcePoint%22%2F%3E%3CmxPoint%20x%3D%22960%22%20y%3D%22560%22%20as%3D%22targetPoint%22%2F%3E%3C%2FmxGeometry%3E%3C%2FmxCell%3E%3C%2Froot%3E%3C%2FmxGraphModel%3E&lt;/span&gt;" style="endArrow=none;html=1;rounded=0;entryX=0;entryY=1;entryDx=0;entryDy=0;strokeWidth=2;" parent="1" edge="1">
          <mxGeometry width="50" height="50" relative="1" as="geometry">
            <mxPoint x="680" y="561" as="sourcePoint" />
            <mxPoint x="840" y="560.17" as="targetPoint" />
          </mxGeometry>
        </mxCell>
        <mxCell id="FBQwd6edi8yIUVr25xzs-80" value="" style="endArrow=none;html=1;rounded=0;" parent="1" edge="1">
          <mxGeometry width="50" height="50" relative="1" as="geometry">
            <mxPoint x="680" y="590" as="sourcePoint" />
            <mxPoint x="680" y="560" as="targetPoint" />
          </mxGeometry>
        </mxCell>
        <mxCell id="FBQwd6edi8yIUVr25xzs-81" value="&lt;span style=&quot;color: rgba(0, 0, 0, 0); font-family: monospace; font-size: 0px; text-align: start; background-color: rgb(236, 236, 236);&quot;&gt;%3CmxGraphModel%3E%3Croot%3E%3CmxCell%20id%3D%220%22%2F%3E%3CmxCell%20id%3D%221%22%20parent%3D%220%22%2F%3E%3CmxCell%20id%3D%222%22%20value%3D%22%22%20style%3D%22endArrow%3Dnone%3Bhtml%3D1%3Brounded%3D0%3BentryX%3D0%3BentryY%3D1%3BentryDx%3D0%3BentryDy%3D0%3B%22%20edge%3D%221%22%20parent%3D%221%22%3E%3CmxGeometry%20width%3D%2250%22%20height%3D%2250%22%20relative%3D%221%22%20as%3D%22geometry%22%3E%3CmxPoint%20x%3D%22840%22%20y%3D%22560%22%20as%3D%22sourcePoint%22%2F%3E%3CmxPoint%20x%3D%22960%22%20y%3D%22560%22%20as%3D%22targetPoint%22%2F%3E%3C%2FmxGeometry%3E%3C%2FmxCell%3E%3C%2Froot%3E%3C%2FmxGraphModel%3E&lt;/span&gt;&lt;span style=&quot;color: rgba(0, 0, 0, 0); font-family: monospace; font-size: 0px; text-align: start; background-color: rgb(236, 236, 236);&quot;&gt;%3CmxGraphModel%3E%3Croot%3E%3CmxCell%20id%3D%220%22%2F%3E%3CmxCell%20id%3D%221%22%20parent%3D%220%22%2F%3E%3CmxCell%20id%3D%222%22%20value%3D%22%22%20style%3D%22endArrow%3Dnone%3Bhtml%3D1%3Brounded%3D0%3BentryX%3D0%3BentryY%3D1%3BentryDx%3D0%3BentryDy%3D0%3B%22%20edge%3D%221%22%20parent%3D%221%22%3E%3CmxGeometry%20width%3D%2250%22%20height%3D%2250%22%20relative%3D%221%22%20as%3D%22geometry%22%3E%3CmxPoint%20x%3D%22840%22%20y%3D%22560%22%20as%3D%22sourcePoint%22%2F%3E%3CmxPoint%20x%3D%22960%22%20y%3D%22560%22%20as%3D%22targetPoint%22%2F%3E%3C%2FmxGeometry%3E%3C%2FmxCell%3E%3C%2Froot%3E%3C%2FmxGraphModel%3E&lt;/span&gt;" style="endArrow=none;html=1;rounded=0;entryX=0;entryY=1;entryDx=0;entryDy=0;" parent="1" edge="1">
          <mxGeometry width="50" height="50" relative="1" as="geometry">
            <mxPoint x="840" y="560" as="sourcePoint" />
            <mxPoint x="960" y="560" as="targetPoint" />
          </mxGeometry>
        </mxCell>
        <mxCell id="FBQwd6edi8yIUVr25xzs-82" value="&lt;span style=&quot;color: rgba(0, 0, 0, 0); font-family: monospace; font-size: 0px; text-align: start; background-color: rgb(236, 236, 236);&quot;&gt;%3CmxGraphModel%3E%3Croot%3E%3CmxCell%20id%3D%220%22%2F%3E%3CmxCell%20id%3D%221%22%20parent%3D%220%22%2F%3E%3CmxCell%20id%3D%222%22%20value%3D%22%22%20style%3D%22endArrow%3Dnone%3Bhtml%3D1%3Brounded%3D0%3BentryX%3D0%3BentryY%3D1%3BentryDx%3D0%3BentryDy%3D0%3B%22%20edge%3D%221%22%20parent%3D%221%22%3E%3CmxGeometry%20width%3D%2250%22%20height%3D%2250%22%20relative%3D%221%22%20as%3D%22geometry%22%3E%3CmxPoint%20x%3D%22840%22%20y%3D%22560%22%20as%3D%22sourcePoint%22%2F%3E%3CmxPoint%20x%3D%22960%22%20y%3D%22560%22%20as%3D%22targetPoint%22%2F%3E%3C%2FmxGeometry%3E%3C%2FmxCell%3E%3C%2Froot%3E%3C%2FmxGraphModel%3E&lt;/span&gt;&lt;span style=&quot;color: rgba(0, 0, 0, 0); font-family: monospace; font-size: 0px; text-align: start; background-color: rgb(236, 236, 236);&quot;&gt;%3CmxGraphModel%3E%3Croot%3E%3CmxCell%20id%3D%220%22%2F%3E%3CmxCell%20id%3D%221%22%20parent%3D%220%22%2F%3E%3CmxCell%20id%3D%222%22%20value%3D%22%22%20style%3D%22endArrow%3Dnone%3Bhtml%3D1%3Brounded%3D0%3BentryX%3D0%3BentryY%3D1%3BentryDx%3D0%3BentryDy%3D0%3B%22%20edge%3D%221%22%20parent%3D%221%22%3E%3CmxGeometry%20width%3D%2250%22%20height%3D%2250%22%20relative%3D%221%22%20as%3D%22geometry%22%3E%3CmxPoint%20x%3D%22840%22%20y%3D%22560%22%20as%3D%22sourcePoint%22%2F%3E%3CmxPoint%20x%3D%22960%22%20y%3D%22560%22%20as%3D%22targetPoint%22%2F%3E%3C%2FmxGeometry%3E%3C%2FmxCell%3E%3C%2Froot%3E%3C%2FmxGraphModel%3E&lt;/span&gt;" style="endArrow=none;html=1;rounded=0;entryX=1;entryY=0;entryDx=0;entryDy=0;exitX=0;exitY=1;exitDx=0;exitDy=0;" parent="1" source="FBQwd6edi8yIUVr25xzs-112" target="FBQwd6edi8yIUVr25xzs-83" edge="1">
          <mxGeometry width="50" height="50" relative="1" as="geometry">
            <mxPoint x="100" y="529.31" as="sourcePoint" />
            <mxPoint x="220" y="529.31" as="targetPoint" />
          </mxGeometry>
        </mxCell>
        <mxCell id="FBQwd6edi8yIUVr25xzs-84" value="&lt;span style=&quot;color: rgba(0, 0, 0, 0); font-family: monospace; font-size: 0px; text-align: start; background-color: rgb(236, 236, 236);&quot;&gt;%3CmxGraphModel%3E%3Croot%3E%3CmxCell%20id%3D%220%22%2F%3E%3CmxCell%20id%3D%221%22%20parent%3D%220%22%2F%3E%3CmxCell%20id%3D%222%22%20value%3D%22%22%20style%3D%22endArrow%3Dnone%3Bhtml%3D1%3Brounded%3D0%3BentryX%3D0%3BentryY%3D1%3BentryDx%3D0%3BentryDy%3D0%3B%22%20edge%3D%221%22%20parent%3D%221%22%3E%3CmxGeometry%20width%3D%2250%22%20height%3D%2250%22%20relative%3D%221%22%20as%3D%22geometry%22%3E%3CmxPoint%20x%3D%22840%22%20y%3D%22560%22%20as%3D%22sourcePoint%22%2F%3E%3CmxPoint%20x%3D%22960%22%20y%3D%22560%22%20as%3D%22targetPoint%22%2F%3E%3C%2FmxGeometry%3E%3C%2FmxCell%3E%3C%2Froot%3E%3C%2FmxGraphModel%3E&lt;/span&gt;&lt;span style=&quot;color: rgba(0, 0, 0, 0); font-family: monospace; font-size: 0px; text-align: start; background-color: rgb(236, 236, 236);&quot;&gt;%3CmxGraphModel%3E%3Croot%3E%3CmxCell%20id%3D%220%22%2F%3E%3CmxCell%20id%3D%221%22%20parent%3D%220%22%2F%3E%3CmxCell%20id%3D%222%22%20value%3D%22%22%20style%3D%22endArrow%3Dnone%3Bhtml%3D1%3Brounded%3D0%3BentryX%3D0%3BentryY%3D1%3BentryDx%3D0%3BentryDy%3D0%3B%22%20edge%3D%221%22%20parent%3D%221%22%3E%3CmxGeometry%20width%3D%2250%22%20height%3D%2250%22%20relative%3D%221%22%20as%3D%22geometry%22%3E%3CmxPoint%20x%3D%22840%22%20y%3D%22560%22%20as%3D%22sourcePoint%22%2F%3E%3CmxPoint%20x%3D%22960%22%20y%3D%22560%22%20as%3D%22targetPoint%22%2F%3E%3C%2FmxGeometry%3E%3C%2FmxCell%3E%3C%2Froot%3E%3C%2FmxGraphModel%3E&lt;/span&gt;" style="endArrow=none;html=1;rounded=0;entryX=0;entryY=1;entryDx=0;entryDy=0;strokeWidth=2;" parent="1" edge="1">
          <mxGeometry width="50" height="50" relative="1" as="geometry">
            <mxPoint x="720" y="480" as="sourcePoint" />
            <mxPoint x="800" y="480" as="targetPoint" />
          </mxGeometry>
        </mxCell>
        <mxCell id="FBQwd6edi8yIUVr25xzs-85" value="" style="endArrow=none;html=1;rounded=0;" parent="1" edge="1">
          <mxGeometry width="50" height="50" relative="1" as="geometry">
            <mxPoint x="670" y="510" as="sourcePoint" />
            <mxPoint x="670" y="480" as="targetPoint" />
          </mxGeometry>
        </mxCell>
        <mxCell id="FBQwd6edi8yIUVr25xzs-98" value="&lt;span style=&quot;color: rgba(0, 0, 0, 0); font-family: monospace; font-size: 0px; text-align: start; background-color: rgb(236, 236, 236);&quot;&gt;%3CmxGraphModel%3E%3Croot%3E%3CmxCell%20id%3D%220%22%2F%3E%3CmxCell%20id%3D%221%22%20parent%3D%220%22%2F%3E%3CmxCell%20id%3D%222%22%20value%3D%22%22%20style%3D%22endArrow%3Dnone%3Bhtml%3D1%3Brounded%3D0%3BentryX%3D0%3BentryY%3D1%3BentryDx%3D0%3BentryDy%3D0%3B%22%20edge%3D%221%22%20parent%3D%221%22%3E%3CmxGeometry%20width%3D%2250%22%20height%3D%2250%22%20relative%3D%221%22%20as%3D%22geometry%22%3E%3CmxPoint%20x%3D%22840%22%20y%3D%22560%22%20as%3D%22sourcePoint%22%2F%3E%3CmxPoint%20x%3D%22960%22%20y%3D%22560%22%20as%3D%22targetPoint%22%2F%3E%3C%2FmxGeometry%3E%3C%2FmxCell%3E%3C%2Froot%3E%3C%2FmxGraphModel%3E&lt;/span&gt;&lt;span style=&quot;color: rgba(0, 0, 0, 0); font-family: monospace; font-size: 0px; text-align: start; background-color: rgb(236, 236, 236);&quot;&gt;%3CmxGraphModel%3E%3Croot%3E%3CmxCell%20id%3D%220%22%2F%3E%3CmxCell%20id%3D%221%22%20parent%3D%220%22%2F%3E%3CmxCell%20id%3D%222%22%20value%3D%22%22%20style%3D%22endArrow%3Dnone%3Bhtml%3D1%3Brounded%3D0%3BentryX%3D0%3BentryY%3D1%3BentryDx%3D0%3BentryDy%3D0%3B%22%20edge%3D%221%22%20parent%3D%221%22%3E%3CmxGeometry%20width%3D%2250%22%20height%3D%2250%22%20relative%3D%221%22%20as%3D%22geometry%22%3E%3CmxPoint%20x%3D%22840%22%20y%3D%22560%22%20as%3D%22sourcePoint%22%2F%3E%3CmxPoint%20x%3D%22960%22%20y%3D%22560%22%20as%3D%22targetPoint%22%2F%3E%3C%2FmxGeometry%3E%3C%2FmxCell%3E%3C%2Froot%3E%3C%2FmxGraphModel%3E&lt;/span&gt;" style="endArrow=none;html=1;rounded=0;" parent="1" edge="1">
          <mxGeometry width="50" height="50" relative="1" as="geometry">
            <mxPoint x="370" y="560" as="sourcePoint" />
            <mxPoint x="470" y="560" as="targetPoint" />
          </mxGeometry>
        </mxCell>
        <mxCell id="FBQwd6edi8yIUVr25xzs-100" value="" style="endArrow=none;html=1;rounded=0;" parent="1" edge="1">
          <mxGeometry width="50" height="50" relative="1" as="geometry">
            <mxPoint x="590" y="560" as="sourcePoint" />
            <mxPoint x="590" y="530" as="targetPoint" />
          </mxGeometry>
        </mxCell>
        <mxCell id="FBQwd6edi8yIUVr25xzs-102" value="" style="endArrow=none;html=1;rounded=0;" parent="1" edge="1">
          <mxGeometry width="50" height="50" relative="1" as="geometry">
            <mxPoint x="520" y="510" as="sourcePoint" />
            <mxPoint x="520" y="480" as="targetPoint" />
          </mxGeometry>
        </mxCell>
        <mxCell id="FBQwd6edi8yIUVr25xzs-105" value="" style="endArrow=none;html=1;rounded=0;" parent="1" edge="1">
          <mxGeometry width="50" height="50" relative="1" as="geometry">
            <mxPoint x="370" y="560" as="sourcePoint" />
            <mxPoint x="370.16999999999996" y="530" as="targetPoint" />
          </mxGeometry>
        </mxCell>
        <mxCell id="FBQwd6edi8yIUVr25xzs-106" value="" style="endArrow=none;html=1;rounded=0;strokeWidth=2;" parent="1" edge="1">
          <mxGeometry width="50" height="50" relative="1" as="geometry">
            <mxPoint x="520" y="660" as="sourcePoint" />
            <mxPoint x="600" y="660" as="targetPoint" />
          </mxGeometry>
        </mxCell>
        <mxCell id="FBQwd6edi8yIUVr25xzs-107" value="&lt;span style=&quot;color: rgba(0, 0, 0, 0); font-family: monospace; font-size: 0px; text-align: start; background-color: rgb(236, 236, 236);&quot;&gt;%3CmxGraphModel%3E%3Croot%3E%3CmxCell%20id%3D%220%22%2F%3E%3CmxCell%20id%3D%221%22%20parent%3D%220%22%2F%3E%3CmxCell%20id%3D%222%22%20value%3D%22%22%20style%3D%22endArrow%3Dnone%3Bhtml%3D1%3Brounded%3D0%3BentryX%3D0%3BentryY%3D1%3BentryDx%3D0%3BentryDy%3D0%3B%22%20edge%3D%221%22%20parent%3D%221%22%3E%3CmxGeometry%20width%3D%2250%22%20height%3D%2250%22%20relative%3D%221%22%20as%3D%22geometry%22%3E%3CmxPoint%20x%3D%22840%22%20y%3D%22560%22%20as%3D%22sourcePoint%22%2F%3E%3CmxPoint%20x%3D%22960%22%20y%3D%22560%22%20as%3D%22targetPoint%22%2F%3E%3C%2FmxGeometry%3E%3C%2FmxCell%3E%3C%2Froot%3E%3C%2FmxGraphModel%3E&lt;/span&gt;&lt;span style=&quot;color: rgba(0, 0, 0, 0); font-family: monospace; font-size: 0px; text-align: start; background-color: rgb(236, 236, 236);&quot;&gt;%3CmxGraphModel%3E%3Croot%3E%3CmxCell%20id%3D%220%22%2F%3E%3CmxCell%20id%3D%221%22%20parent%3D%220%22%2F%3E%3CmxCell%20id%3D%222%22%20value%3D%22%22%20style%3D%22endArrow%3Dnone%3Bhtml%3D1%3Brounded%3D0%3BentryX%3D0%3BentryY%3D1%3BentryDx%3D0%3BentryDy%3D0%3B%22%20edge%3D%221%22%20parent%3D%221%22%3E%3CmxGeometry%20width%3D%2250%22%20height%3D%2250%22%20relative%3D%221%22%20as%3D%22geometry%22%3E%3CmxPoint%20x%3D%22840%22%20y%3D%22560%22%20as%3D%22sourcePoint%22%2F%3E%3CmxPoint%20x%3D%22960%22%20y%3D%22560%22%20as%3D%22targetPoint%22%2F%3E%3C%2FmxGeometry%3E%3C%2FmxCell%3E%3C%2Froot%3E%3C%2FmxGraphModel%3E&lt;/span&gt;" style="endArrow=none;html=1;rounded=0;" parent="1" edge="1">
          <mxGeometry width="50" height="50" relative="1" as="geometry">
            <mxPoint x="520" y="660" as="sourcePoint" />
            <mxPoint x="440" y="670" as="targetPoint" />
          </mxGeometry>
        </mxCell>
        <mxCell id="FBQwd6edi8yIUVr25xzs-108" value="&lt;span style=&quot;color: rgba(0, 0, 0, 0); font-family: monospace; font-size: 0px; text-align: start; background-color: rgb(236, 236, 236);&quot;&gt;%3CmxGraphModel%3E%3Croot%3E%3CmxCell%20id%3D%220%22%2F%3E%3CmxCell%20id%3D%221%22%20parent%3D%220%22%2F%3E%3CmxCell%20id%3D%222%22%20value%3D%22%22%20style%3D%22endArrow%3Dnone%3Bhtml%3D1%3Brounded%3D0%3BentryX%3D0%3BentryY%3D1%3BentryDx%3D0%3BentryDy%3D0%3B%22%20edge%3D%221%22%20parent%3D%221%22%3E%3CmxGeometry%20width%3D%2250%22%20height%3D%2250%22%20relative%3D%221%22%20as%3D%22geometry%22%3E%3CmxPoint%20x%3D%22840%22%20y%3D%22560%22%20as%3D%22sourcePoint%22%2F%3E%3CmxPoint%20x%3D%22960%22%20y%3D%22560%22%20as%3D%22targetPoint%22%2F%3E%3C%2FmxGeometry%3E%3C%2FmxCell%3E%3C%2Froot%3E%3C%2FmxGraphModel%3E&lt;/span&gt;&lt;span style=&quot;color: rgba(0, 0, 0, 0); font-family: monospace; font-size: 0px; text-align: start; background-color: rgb(236, 236, 236);&quot;&gt;%3CmxGraphModel%3E%3Croot%3E%3CmxCell%20id%3D%220%22%2F%3E%3CmxCell%20id%3D%221%22%20parent%3D%220%22%2F%3E%3CmxCell%20id%3D%222%22%20value%3D%22%22%20style%3D%22endArrow%3Dnone%3Bhtml%3D1%3Brounded%3D0%3BentryX%3D0%3BentryY%3D1%3BentryDx%3D0%3BentryDy%3D0%3B%22%20edge%3D%221%22%20parent%3D%221%22%3E%3CmxGeometry%20width%3D%2250%22%20height%3D%2250%22%20relative%3D%221%22%20as%3D%22geometry%22%3E%3CmxPoint%20x%3D%22840%22%20y%3D%22560%22%20as%3D%22sourcePoint%22%2F%3E%3CmxPoint%20x%3D%22960%22%20y%3D%22560%22%20as%3D%22targetPoint%22%2F%3E%3C%2FmxGeometry%3E%3C%2FmxCell%3E%3C%2Froot%3E%3C%2FmxGraphModel%3E&lt;/span&gt;" style="endArrow=none;html=1;rounded=0;strokeWidth=2;" parent="1" edge="1">
          <mxGeometry width="50" height="50" relative="1" as="geometry">
            <mxPoint x="440" y="670" as="sourcePoint" />
            <mxPoint x="400" y="710" as="targetPoint" />
          </mxGeometry>
        </mxCell>
        <mxCell id="FBQwd6edi8yIUVr25xzs-109" value="&lt;span style=&quot;color: rgba(0, 0, 0, 0); font-family: monospace; font-size: 0px; text-align: start; background-color: rgb(236, 236, 236);&quot;&gt;%3CmxGraphModel%3E%3Croot%3E%3CmxCell%20id%3D%220%22%2F%3E%3CmxCell%20id%3D%221%22%20parent%3D%220%22%2F%3E%3CmxCell%20id%3D%222%22%20value%3D%22%22%20style%3D%22endArrow%3Dnone%3Bhtml%3D1%3Brounded%3D0%3BentryX%3D0%3BentryY%3D1%3BentryDx%3D0%3BentryDy%3D0%3B%22%20edge%3D%221%22%20parent%3D%221%22%3E%3CmxGeometry%20width%3D%2250%22%20height%3D%2250%22%20relative%3D%221%22%20as%3D%22geometry%22%3E%3CmxPoint%20x%3D%22840%22%20y%3D%22560%22%20as%3D%22sourcePoint%22%2F%3E%3CmxPoint%20x%3D%22960%22%20y%3D%22560%22%20as%3D%22targetPoint%22%2F%3E%3C%2FmxGeometry%3E%3C%2FmxCell%3E%3C%2Froot%3E%3C%2FmxGraphModel%3E&lt;/span&gt;&lt;span style=&quot;color: rgba(0, 0, 0, 0); font-family: monospace; font-size: 0px; text-align: start; background-color: rgb(236, 236, 236);&quot;&gt;%3CmxGraphModel%3E%3Croot%3E%3CmxCell%20id%3D%220%22%2F%3E%3CmxCell%20id%3D%221%22%20parent%3D%220%22%2F%3E%3CmxCell%20id%3D%222%22%20value%3D%22%22%20style%3D%22endArrow%3Dnone%3Bhtml%3D1%3Brounded%3D0%3BentryX%3D0%3BentryY%3D1%3BentryDx%3D0%3BentryDy%3D0%3B%22%20edge%3D%221%22%20parent%3D%221%22%3E%3CmxGeometry%20width%3D%2250%22%20height%3D%2250%22%20relative%3D%221%22%20as%3D%22geometry%22%3E%3CmxPoint%20x%3D%22840%22%20y%3D%22560%22%20as%3D%22sourcePoint%22%2F%3E%3CmxPoint%20x%3D%22960%22%20y%3D%22560%22%20as%3D%22targetPoint%22%2F%3E%3C%2FmxGeometry%3E%3C%2FmxCell%3E%3C%2Froot%3E%3C%2FmxGraphModel%3E&lt;/span&gt;" style="endArrow=none;html=1;rounded=0;strokeWidth=2;" parent="1" edge="1">
          <mxGeometry width="50" height="50" relative="1" as="geometry">
            <mxPoint x="370" y="580" as="sourcePoint" />
            <mxPoint x="370" y="610" as="targetPoint" />
          </mxGeometry>
        </mxCell>
        <mxCell id="FBQwd6edi8yIUVr25xzs-114" value="8" style="text;html=1;align=center;verticalAlign=middle;whiteSpace=wrap;rounded=0;" parent="1" vertex="1">
          <mxGeometry x="760" y="450" width="30" height="30" as="geometry" />
        </mxCell>
        <mxCell id="FBQwd6edi8yIUVr25xzs-115" value="7" style="text;html=1;align=center;verticalAlign=middle;whiteSpace=wrap;rounded=0;" parent="1" vertex="1">
          <mxGeometry x="610" y="450" width="30" height="30" as="geometry" />
        </mxCell>
        <mxCell id="FBQwd6edi8yIUVr25xzs-116" value="&lt;span style=&quot;color: rgba(0, 0, 0, 0); font-family: monospace; font-size: 0px; text-align: start; background-color: rgb(236, 236, 236);&quot;&gt;%3CmxGraphModel%3E%3Croot%3E%3CmxCell%20id%3D%220%22%2F%3E%3CmxCell%20id%3D%221%22%20parent%3D%220%22%2F%3E%3CmxCell%20id%3D%222%22%20value%3D%22%22%20style%3D%22endArrow%3Dnone%3Bhtml%3D1%3Brounded%3D0%3BentryX%3D0%3BentryY%3D1%3BentryDx%3D0%3BentryDy%3D0%3B%22%20edge%3D%221%22%20parent%3D%221%22%3E%3CmxGeometry%20width%3D%2250%22%20height%3D%2250%22%20relative%3D%221%22%20as%3D%22geometry%22%3E%3CmxPoint%20x%3D%22840%22%20y%3D%22560%22%20as%3D%22sourcePoint%22%2F%3E%3CmxPoint%20x%3D%22960%22%20y%3D%22560%22%20as%3D%22targetPoint%22%2F%3E%3C%2FmxGeometry%3E%3C%2FmxCell%3E%3C%2Froot%3E%3C%2FmxGraphModel%3E&lt;/span&gt;&lt;span style=&quot;color: rgba(0, 0, 0, 0); font-family: monospace; font-size: 0px; text-align: start; background-color: rgb(236, 236, 236);&quot;&gt;%3CmxGraphModel%3E%3Croot%3E%3CmxCell%20id%3D%220%22%2F%3E%3CmxCell%20id%3D%221%22%20parent%3D%220%22%2F%3E%3CmxCell%20id%3D%222%22%20value%3D%22%22%20style%3D%22endArrow%3Dnone%3Bhtml%3D1%3Brounded%3D0%3BentryX%3D0%3BentryY%3D1%3BentryDx%3D0%3BentryDy%3D0%3B%22%20edge%3D%221%22%20parent%3D%221%22%3E%3CmxGeometry%20width%3D%2250%22%20height%3D%2250%22%20relative%3D%221%22%20as%3D%22geometry%22%3E%3CmxPoint%20x%3D%22840%22%20y%3D%22560%22%20as%3D%22sourcePoint%22%2F%3E%3CmxPoint%20x%3D%22960%22%20y%3D%22560%22%20as%3D%22targetPoint%22%2F%3E%3C%2FmxGeometry%3E%3C%2FmxCell%3E%3C%2Froot%3E%3C%2FmxGraphModel%3E&lt;/span&gt;" style="endArrow=none;html=1;rounded=0;strokeWidth=1;" parent="1" edge="1">
          <mxGeometry width="50" height="50" relative="1" as="geometry">
            <mxPoint x="560" y="479" as="sourcePoint" />
            <mxPoint x="670" y="480" as="targetPoint" />
          </mxGeometry>
        </mxCell>
        <mxCell id="FBQwd6edi8yIUVr25xzs-120" value="25" style="text;html=1;align=center;verticalAlign=middle;whiteSpace=wrap;rounded=0;" parent="1" vertex="1">
          <mxGeometry x="530" y="450" width="30" height="30" as="geometry" />
        </mxCell>
        <mxCell id="FBQwd6edi8yIUVr25xzs-122" value="&lt;span style=&quot;color: rgba(0, 0, 0, 0); font-family: monospace; font-size: 0px; text-align: start; background-color: rgb(236, 236, 236);&quot;&gt;%3CmxGraphModel%3E%3Croot%3E%3CmxCell%20id%3D%220%22%2F%3E%3CmxCell%20id%3D%221%22%20parent%3D%220%22%2F%3E%3CmxCell%20id%3D%222%22%20value%3D%22%22%20style%3D%22endArrow%3Dnone%3Bhtml%3D1%3Brounded%3D0%3BentryX%3D0%3BentryY%3D1%3BentryDx%3D0%3BentryDy%3D0%3B%22%20edge%3D%221%22%20parent%3D%221%22%3E%3CmxGeometry%20width%3D%2250%22%20height%3D%2250%22%20relative%3D%221%22%20as%3D%22geometry%22%3E%3CmxPoint%20x%3D%22840%22%20y%3D%22560%22%20as%3D%22sourcePoint%22%2F%3E%3CmxPoint%20x%3D%22960%22%20y%3D%22560%22%20as%3D%22targetPoint%22%2F%3E%3C%2FmxGeometry%3E%3C%2FmxCell%3E%3C%2Froot%3E%3C%2FmxGraphModel%3E&lt;/span&gt;&lt;span style=&quot;color: rgba(0, 0, 0, 0); font-family: monospace; font-size: 0px; text-align: start; background-color: rgb(236, 236, 236);&quot;&gt;%3CmxGraphModel%3E%3Croot%3E%3CmxCell%20id%3D%220%22%2F%3E%3CmxCell%20id%3D%221%22%20parent%3D%220%22%2F%3E%3CmxCell%20id%3D%222%22%20value%3D%22%22%20style%3D%22endArrow%3Dnone%3Bhtml%3D1%3Brounded%3D0%3BentryX%3D0%3BentryY%3D1%3BentryDx%3D0%3BentryDy%3D0%3B%22%20edge%3D%221%22%20parent%3D%221%22%3E%3CmxGeometry%20width%3D%2250%22%20height%3D%2250%22%20relative%3D%221%22%20as%3D%22geometry%22%3E%3CmxPoint%20x%3D%22840%22%20y%3D%22560%22%20as%3D%22sourcePoint%22%2F%3E%3CmxPoint%20x%3D%22960%22%20y%3D%22560%22%20as%3D%22targetPoint%22%2F%3E%3C%2FmxGeometry%3E%3C%2FmxCell%3E%3C%2Froot%3E%3C%2FmxGraphModel%3E&lt;/span&gt;" style="endArrow=none;html=1;rounded=0;strokeWidth=2;" parent="1" edge="1">
          <mxGeometry width="50" height="50" relative="1" as="geometry">
            <mxPoint x="560" y="480" as="sourcePoint" />
            <mxPoint x="480" y="480" as="targetPoint" />
          </mxGeometry>
        </mxCell>
        <mxCell id="FBQwd6edi8yIUVr25xzs-125" value="&lt;span style=&quot;color: rgba(0, 0, 0, 0); font-family: monospace; font-size: 0px; text-align: start; background-color: rgb(236, 236, 236);&quot;&gt;%3CmxGraphModel%3E%3Croot%3E%3CmxCell%20id%3D%220%22%2F%3E%3CmxCell%20id%3D%221%22%20parent%3D%220%22%2F%3E%3CmxCell%20id%3D%222%22%20value%3D%22%22%20style%3D%22endArrow%3Dnone%3Bhtml%3D1%3Brounded%3D0%3BentryX%3D0%3BentryY%3D1%3BentryDx%3D0%3BentryDy%3D0%3B%22%20edge%3D%221%22%20parent%3D%221%22%3E%3CmxGeometry%20width%3D%2250%22%20height%3D%2250%22%20relative%3D%221%22%20as%3D%22geometry%22%3E%3CmxPoint%20x%3D%22840%22%20y%3D%22560%22%20as%3D%22sourcePoint%22%2F%3E%3CmxPoint%20x%3D%22960%22%20y%3D%22560%22%20as%3D%22targetPoint%22%2F%3E%3C%2FmxGeometry%3E%3C%2FmxCell%3E%3C%2Froot%3E%3C%2FmxGraphModel%3E&lt;/span&gt;&lt;span style=&quot;color: rgba(0, 0, 0, 0); font-family: monospace; font-size: 0px; text-align: start; background-color: rgb(236, 236, 236);&quot;&gt;%3CmxGraphModel%3E%3Croot%3E%3CmxCell%20id%3D%220%22%2F%3E%3CmxCell%20id%3D%221%22%20parent%3D%220%22%2F%3E%3CmxCell%20id%3D%222%22%20value%3D%22%22%20style%3D%22endArrow%3Dnone%3Bhtml%3D1%3Brounded%3D0%3BentryX%3D0%3BentryY%3D1%3BentryDx%3D0%3BentryDy%3D0%3B%22%20edge%3D%221%22%20parent%3D%221%22%3E%3CmxGeometry%20width%3D%2250%22%20height%3D%2250%22%20relative%3D%221%22%20as%3D%22geometry%22%3E%3CmxPoint%20x%3D%22840%22%20y%3D%22560%22%20as%3D%22sourcePoint%22%2F%3E%3CmxPoint%20x%3D%22960%22%20y%3D%22560%22%20as%3D%22targetPoint%22%2F%3E%3C%2FmxGeometry%3E%3C%2FmxCell%3E%3C%2Froot%3E%3C%2FmxGraphModel%3E&lt;/span&gt;" style="endArrow=none;html=1;rounded=0;" parent="1" edge="1">
          <mxGeometry width="50" height="50" relative="1" as="geometry">
            <mxPoint x="480" y="479.17" as="sourcePoint" />
            <mxPoint x="370" y="480" as="targetPoint" />
          </mxGeometry>
        </mxCell>
        <mxCell id="FBQwd6edi8yIUVr25xzs-126" value="26" style="text;html=1;align=center;verticalAlign=middle;whiteSpace=wrap;rounded=0;" parent="1" vertex="1">
          <mxGeometry x="420" y="450" width="30" height="30" as="geometry" />
        </mxCell>
        <mxCell id="FBQwd6edi8yIUVr25xzs-131" value="&lt;span style=&quot;color: rgba(0, 0, 0, 0); font-family: monospace; font-size: 0px; text-align: start; background-color: rgb(236, 236, 236);&quot;&gt;%3CmxGraphModel%3E%3Croot%3E%3CmxCell%20id%3D%220%22%2F%3E%3CmxCell%20id%3D%221%22%20parent%3D%220%22%2F%3E%3CmxCell%20id%3D%222%22%20value%3D%22%22%20style%3D%22endArrow%3Dnone%3Bhtml%3D1%3Brounded%3D0%3BentryX%3D0%3BentryY%3D1%3BentryDx%3D0%3BentryDy%3D0%3B%22%20edge%3D%221%22%20parent%3D%221%22%3E%3CmxGeometry%20width%3D%2250%22%20height%3D%2250%22%20relative%3D%221%22%20as%3D%22geometry%22%3E%3CmxPoint%20x%3D%22840%22%20y%3D%22560%22%20as%3D%22sourcePoint%22%2F%3E%3CmxPoint%20x%3D%22960%22%20y%3D%22560%22%20as%3D%22targetPoint%22%2F%3E%3C%2FmxGeometry%3E%3C%2FmxCell%3E%3C%2Froot%3E%3C%2FmxGraphModel%3E&lt;/span&gt;&lt;span style=&quot;color: rgba(0, 0, 0, 0); font-family: monospace; font-size: 0px; text-align: start; background-color: rgb(236, 236, 236);&quot;&gt;%3CmxGraphModel%3E%3Croot%3E%3CmxCell%20id%3D%220%22%2F%3E%3CmxCell%20id%3D%221%22%20parent%3D%220%22%2F%3E%3CmxCell%20id%3D%222%22%20value%3D%22%22%20style%3D%22endArrow%3Dnone%3Bhtml%3D1%3Brounded%3D0%3BentryX%3D0%3BentryY%3D1%3BentryDx%3D0%3BentryDy%3D0%3B%22%20edge%3D%221%22%20parent%3D%221%22%3E%3CmxGeometry%20width%3D%2250%22%20height%3D%2250%22%20relative%3D%221%22%20as%3D%22geometry%22%3E%3CmxPoint%20x%3D%22840%22%20y%3D%22560%22%20as%3D%22sourcePoint%22%2F%3E%3CmxPoint%20x%3D%22960%22%20y%3D%22560%22%20as%3D%22targetPoint%22%2F%3E%3C%2FmxGeometry%3E%3C%2FmxCell%3E%3C%2Froot%3E%3C%2FmxGraphModel%3E&lt;/span&gt;" style="endArrow=none;html=1;rounded=0;strokeWidth=2;" parent="1" edge="1">
          <mxGeometry width="50" height="50" relative="1" as="geometry">
            <mxPoint x="300" y="710" as="sourcePoint" />
            <mxPoint x="100" y="710" as="targetPoint" />
          </mxGeometry>
        </mxCell>
        <mxCell id="FBQwd6edi8yIUVr25xzs-132" value="&lt;span style=&quot;color: rgba(0, 0, 0, 0); font-family: monospace; font-size: 0px; text-align: start; background-color: rgb(236, 236, 236);&quot;&gt;%3CmxGraphModel%3E%3Croot%3E%3CmxCell%20id%3D%220%22%2F%3E%3CmxCell%20id%3D%221%22%20parent%3D%220%22%2F%3E%3CmxCell%20id%3D%222%22%20value%3D%22%22%20style%3D%22endArrow%3Dnone%3Bhtml%3D1%3Brounded%3D0%3BentryX%3D0%3BentryY%3D1%3BentryDx%3D0%3BentryDy%3D0%3B%22%20edge%3D%221%22%20parent%3D%221%22%3E%3CmxGeometry%20width%3D%2250%22%20height%3D%2250%22%20relative%3D%221%22%20as%3D%22geometry%22%3E%3CmxPoint%20x%3D%22840%22%20y%3D%22560%22%20as%3D%22sourcePoint%22%2F%3E%3CmxPoint%20x%3D%22960%22%20y%3D%22560%22%20as%3D%22targetPoint%22%2F%3E%3C%2FmxGeometry%3E%3C%2FmxCell%3E%3C%2Froot%3E%3C%2FmxGraphModel%3E&lt;/span&gt;&lt;span style=&quot;color: rgba(0, 0, 0, 0); font-family: monospace; font-size: 0px; text-align: start; background-color: rgb(236, 236, 236);&quot;&gt;%3CmxGraphModel%3E%3Croot%3E%3CmxCell%20id%3D%220%22%2F%3E%3CmxCell%20id%3D%221%22%20parent%3D%220%22%2F%3E%3CmxCell%20id%3D%222%22%20value%3D%22%22%20style%3D%22endArrow%3Dnone%3Bhtml%3D1%3Brounded%3D0%3BentryX%3D0%3BentryY%3D1%3BentryDx%3D0%3BentryDy%3D0%3B%22%20edge%3D%221%22%20parent%3D%221%22%3E%3CmxGeometry%20width%3D%2250%22%20height%3D%2250%22%20relative%3D%221%22%20as%3D%22geometry%22%3E%3CmxPoint%20x%3D%22840%22%20y%3D%22560%22%20as%3D%22sourcePoint%22%2F%3E%3CmxPoint%20x%3D%22960%22%20y%3D%22560%22%20as%3D%22targetPoint%22%2F%3E%3C%2FmxGeometry%3E%3C%2FmxCell%3E%3C%2Froot%3E%3C%2FmxGraphModel%3E&lt;/span&gt;" style="endArrow=none;html=1;rounded=0;" parent="1" edge="1">
          <mxGeometry width="50" height="50" relative="1" as="geometry">
            <mxPoint x="400" y="710" as="sourcePoint" />
            <mxPoint x="300" y="710" as="targetPoint" />
          </mxGeometry>
        </mxCell>
        <mxCell id="FBQwd6edi8yIUVr25xzs-133" value="22" style="text;html=1;align=center;verticalAlign=middle;whiteSpace=wrap;rounded=0;" parent="1" vertex="1">
          <mxGeometry x="630" y="530" width="30" height="30" as="geometry" />
        </mxCell>
        <mxCell id="FBQwd6edi8yIUVr25xzs-135" value="24" style="text;html=1;align=center;verticalAlign=middle;whiteSpace=wrap;rounded=0;" parent="1" vertex="1">
          <mxGeometry x="513" y="533" width="30" height="30" as="geometry" />
        </mxCell>
        <mxCell id="FBQwd6edi8yIUVr25xzs-136" value="39" style="text;html=1;align=center;verticalAlign=middle;whiteSpace=wrap;rounded=0;" parent="1" vertex="1">
          <mxGeometry x="420" y="530" width="30" height="30" as="geometry" />
        </mxCell>
        <mxCell id="FBQwd6edi8yIUVr25xzs-137" value="3" style="text;html=1;align=center;verticalAlign=middle;whiteSpace=wrap;rounded=0;" parent="1" vertex="1">
          <mxGeometry x="785" y="700" width="30" height="30" as="geometry" />
        </mxCell>
        <mxCell id="FBQwd6edi8yIUVr25xzs-139" value="2" style="text;html=1;align=center;verticalAlign=middle;whiteSpace=wrap;rounded=0;" parent="1" vertex="1">
          <mxGeometry x="910" y="700" width="30" height="30" as="geometry" />
        </mxCell>
        <mxCell id="FBQwd6edi8yIUVr25xzs-140" value="1" style="text;html=1;align=center;verticalAlign=middle;whiteSpace=wrap;rounded=0;" parent="1" vertex="1">
          <mxGeometry x="964" y="700" width="30" height="30" as="geometry" />
        </mxCell>
        <mxCell id="FBQwd6edi8yIUVr25xzs-142" value="23" style="text;html=1;align=center;verticalAlign=middle;whiteSpace=wrap;rounded=0;" parent="1" vertex="1">
          <mxGeometry x="985" y="710" width="30" height="30" as="geometry" />
        </mxCell>
        <mxCell id="FBQwd6edi8yIUVr25xzs-143" value="4" style="text;html=1;align=center;verticalAlign=middle;whiteSpace=wrap;rounded=0;" parent="1" vertex="1">
          <mxGeometry x="630" y="680" width="30" height="30" as="geometry" />
        </mxCell>
        <mxCell id="FBQwd6edi8yIUVr25xzs-144" value="5" style="text;html=1;align=center;verticalAlign=middle;whiteSpace=wrap;rounded=0;" parent="1" vertex="1">
          <mxGeometry x="550" y="630" width="30" height="30" as="geometry" />
        </mxCell>
        <mxCell id="FBQwd6edi8yIUVr25xzs-146" value="30" style="text;html=1;align=center;verticalAlign=middle;whiteSpace=wrap;rounded=0;" parent="1" vertex="1">
          <mxGeometry x="460" y="640" width="30" height="30" as="geometry" />
        </mxCell>
        <mxCell id="FBQwd6edi8yIUVr25xzs-148" value="29" style="text;html=1;align=center;verticalAlign=middle;whiteSpace=wrap;rounded=0;" parent="1" vertex="1">
          <mxGeometry x="416" y="680" width="30" height="30" as="geometry" />
        </mxCell>
        <mxCell id="FBQwd6edi8yIUVr25xzs-149" value="28" style="text;html=1;align=center;verticalAlign=middle;whiteSpace=wrap;rounded=0;" parent="1" vertex="1">
          <mxGeometry x="330" y="705" width="30" height="30" as="geometry" />
        </mxCell>
        <mxCell id="FBQwd6edi8yIUVr25xzs-150" value="6" style="text;html=1;align=center;verticalAlign=middle;whiteSpace=wrap;rounded=0;" parent="1" vertex="1">
          <mxGeometry x="180" y="705" width="30" height="30" as="geometry" />
        </mxCell>
        <mxCell id="FBQwd6edi8yIUVr25xzs-151" value="&lt;span style=&quot;color: rgba(0, 0, 0, 0); font-family: monospace; font-size: 0px; text-align: start; background-color: rgb(236, 236, 236);&quot;&gt;%3CmxGraphModel%3E%3Croot%3E%3CmxCell%20id%3D%220%22%2F%3E%3CmxCell%20id%3D%221%22%20parent%3D%220%22%2F%3E%3CmxCell%20id%3D%222%22%20value%3D%22%22%20style%3D%22endArrow%3Dnone%3Bhtml%3D1%3Brounded%3D0%3BentryX%3D0%3BentryY%3D1%3BentryDx%3D0%3BentryDy%3D0%3B%22%20edge%3D%221%22%20parent%3D%221%22%3E%3CmxGeometry%20width%3D%2250%22%20height%3D%2250%22%20relative%3D%221%22%20as%3D%22geometry%22%3E%3CmxPoint%20x%3D%22840%22%20y%3D%22560%22%20as%3D%22sourcePoint%22%2F%3E%3CmxPoint%20x%3D%22960%22%20y%3D%22560%22%20as%3D%22targetPoint%22%2F%3E%3C%2FmxGeometry%3E%3C%2FmxCell%3E%3C%2Froot%3E%3C%2FmxGraphModel%3E&lt;/span&gt;&lt;span style=&quot;color: rgba(0, 0, 0, 0); font-family: monospace; font-size: 0px; text-align: start; background-color: rgb(236, 236, 236);&quot;&gt;%3CmxGraphModel%3E%3Croot%3E%3CmxCell%20id%3D%220%22%2F%3E%3CmxCell%20id%3D%221%22%20parent%3D%220%22%2F%3E%3CmxCell%20id%3D%222%22%20value%3D%22%22%20style%3D%22endArrow%3Dnone%3Bhtml%3D1%3Brounded%3D0%3BentryX%3D0%3BentryY%3D1%3BentryDx%3D0%3BentryDy%3D0%3B%22%20edge%3D%221%22%20parent%3D%221%22%3E%3CmxGeometry%20width%3D%2250%22%20height%3D%2250%22%20relative%3D%221%22%20as%3D%22geometry%22%3E%3CmxPoint%20x%3D%22840%22%20y%3D%22560%22%20as%3D%22sourcePoint%22%2F%3E%3CmxPoint%20x%3D%22960%22%20y%3D%22560%22%20as%3D%22targetPoint%22%2F%3E%3C%2FmxGeometry%3E%3C%2FmxCell%3E%3C%2Froot%3E%3C%2FmxGraphModel%3E&lt;/span&gt;" style="endArrow=none;html=1;rounded=0;" parent="1" edge="1">
          <mxGeometry width="50" height="50" relative="1" as="geometry">
            <mxPoint x="70" y="600" as="sourcePoint" />
            <mxPoint x="100" y="710" as="targetPoint" />
          </mxGeometry>
        </mxCell>
        <mxCell id="FBQwd6edi8yIUVr25xzs-152" value="&lt;span style=&quot;color: rgba(0, 0, 0, 0); font-family: monospace; font-size: 0px; text-align: start; background-color: rgb(236, 236, 236);&quot;&gt;%3CmxGraphModel%3E%3Croot%3E%3CmxCell%20id%3D%220%22%2F%3E%3CmxCell%20id%3D%221%22%20parent%3D%220%22%2F%3E%3CmxCell%20id%3D%222%22%20value%3D%22%22%20style%3D%22endArrow%3Dnone%3Bhtml%3D1%3Brounded%3D0%3BentryX%3D0%3BentryY%3D1%3BentryDx%3D0%3BentryDy%3D0%3B%22%20edge%3D%221%22%20parent%3D%221%22%3E%3CmxGeometry%20width%3D%2250%22%20height%3D%2250%22%20relative%3D%221%22%20as%3D%22geometry%22%3E%3CmxPoint%20x%3D%22840%22%20y%3D%22560%22%20as%3D%22sourcePoint%22%2F%3E%3CmxPoint%20x%3D%22960%22%20y%3D%22560%22%20as%3D%22targetPoint%22%2F%3E%3C%2FmxGeometry%3E%3C%2FmxCell%3E%3C%2Froot%3E%3C%2FmxGraphModel%3E&lt;/span&gt;&lt;span style=&quot;color: rgba(0, 0, 0, 0); font-family: monospace; font-size: 0px; text-align: start; background-color: rgb(236, 236, 236);&quot;&gt;%3CmxGraphModel%3E%3Croot%3E%3CmxCell%20id%3D%220%22%2F%3E%3CmxCell%20id%3D%221%22%20parent%3D%220%22%2F%3E%3CmxCell%20id%3D%222%22%20value%3D%22%22%20style%3D%22endArrow%3Dnone%3Bhtml%3D1%3Brounded%3D0%3BentryX%3D0%3BentryY%3D1%3BentryDx%3D0%3BentryDy%3D0%3B%22%20edge%3D%221%22%20parent%3D%221%22%3E%3CmxGeometry%20width%3D%2250%22%20height%3D%2250%22%20relative%3D%221%22%20as%3D%22geometry%22%3E%3CmxPoint%20x%3D%22840%22%20y%3D%22560%22%20as%3D%22sourcePoint%22%2F%3E%3CmxPoint%20x%3D%22960%22%20y%3D%22560%22%20as%3D%22targetPoint%22%2F%3E%3C%2FmxGeometry%3E%3C%2FmxCell%3E%3C%2Froot%3E%3C%2FmxGraphModel%3E&lt;/span&gt;" style="endArrow=none;html=1;rounded=0;strokeWidth=2;" parent="1" edge="1">
          <mxGeometry width="50" height="50" relative="1" as="geometry">
            <mxPoint x="70" y="600" as="sourcePoint" />
            <mxPoint x="120" y="480" as="targetPoint" />
          </mxGeometry>
        </mxCell>
        <mxCell id="FBQwd6edi8yIUVr25xzs-153" value="37" style="text;html=1;align=center;verticalAlign=middle;whiteSpace=wrap;rounded=0;" parent="1" vertex="1">
          <mxGeometry x="40" y="640" width="30" height="30" as="geometry" />
        </mxCell>
        <mxCell id="FBQwd6edi8yIUVr25xzs-154" value="36" style="text;html=1;align=center;verticalAlign=middle;whiteSpace=wrap;rounded=0;" parent="1" vertex="1">
          <mxGeometry x="60" y="510" width="30" height="30" as="geometry" />
        </mxCell>
        <mxCell id="FBQwd6edi8yIUVr25xzs-161" value="&lt;span style=&quot;color: rgba(0, 0, 0, 0); font-family: monospace; font-size: 0px; text-align: start; background-color: rgb(236, 236, 236);&quot;&gt;%3CmxGraphModel%3E%3Croot%3E%3CmxCell%20id%3D%220%22%2F%3E%3CmxCell%20id%3D%221%22%20parent%3D%220%22%2F%3E%3CmxCell%20id%3D%222%22%20value%3D%22%22%20style%3D%22endArrow%3Dnone%3Bhtml%3D1%3Brounded%3D0%3BentryX%3D0%3BentryY%3D1%3BentryDx%3D0%3BentryDy%3D0%3B%22%20edge%3D%221%22%20parent%3D%221%22%3E%3CmxGeometry%20width%3D%2250%22%20height%3D%2250%22%20relative%3D%221%22%20as%3D%22geometry%22%3E%3CmxPoint%20x%3D%22840%22%20y%3D%22560%22%20as%3D%22sourcePoint%22%2F%3E%3CmxPoint%20x%3D%22960%22%20y%3D%22560%22%20as%3D%22targetPoint%22%2F%3E%3C%2FmxGeometry%3E%3C%2FmxCell%3E%3C%2Froot%3E%3C%2FmxGraphModel%3E&lt;/span&gt;&lt;span style=&quot;color: rgba(0, 0, 0, 0); font-family: monospace; font-size: 0px; text-align: start; background-color: rgb(236, 236, 236);&quot;&gt;%3CmxGraphModel%3E%3Croot%3E%3CmxCell%20id%3D%220%22%2F%3E%3CmxCell%20id%3D%221%22%20parent%3D%220%22%2F%3E%3CmxCell%20id%3D%222%22%20value%3D%22%22%20style%3D%22endArrow%3Dnone%3Bhtml%3D1%3Brounded%3D0%3BentryX%3D0%3BentryY%3D1%3BentryDx%3D0%3BentryDy%3D0%3B%22%20edge%3D%221%22%20parent%3D%221%22%3E%3CmxGeometry%20width%3D%2250%22%20height%3D%2250%22%20relative%3D%221%22%20as%3D%22geometry%22%3E%3CmxPoint%20x%3D%22840%22%20y%3D%22560%22%20as%3D%22sourcePoint%22%2F%3E%3CmxPoint%20x%3D%22960%22%20y%3D%22560%22%20as%3D%22targetPoint%22%2F%3E%3C%2FmxGeometry%3E%3C%2FmxCell%3E%3C%2Froot%3E%3C%2FmxGraphModel%3E&lt;/span&gt;" style="endArrow=none;html=1;rounded=0;strokeWidth=1;" parent="1" edge="1">
          <mxGeometry width="50" height="50" relative="1" as="geometry">
            <mxPoint x="370" y="610" as="sourcePoint" />
            <mxPoint x="140" y="610" as="targetPoint" />
          </mxGeometry>
        </mxCell>
        <mxCell id="FBQwd6edi8yIUVr25xzs-162" value="31" style="text;html=1;align=center;verticalAlign=middle;whiteSpace=wrap;rounded=0;" parent="1" vertex="1">
          <mxGeometry x="210" y="610" width="30" height="30" as="geometry" />
        </mxCell>
        <mxCell id="FBQwd6edi8yIUVr25xzs-164" value="&lt;span style=&quot;color: rgba(0, 0, 0, 0); font-family: monospace; font-size: 0px; text-align: start; background-color: rgb(236, 236, 236);&quot;&gt;%3CmxGraphModel%3E%3Croot%3E%3CmxCell%20id%3D%220%22%2F%3E%3CmxCell%20id%3D%221%22%20parent%3D%220%22%2F%3E%3CmxCell%20id%3D%222%22%20value%3D%22%22%20style%3D%22endArrow%3Dnone%3Bhtml%3D1%3Brounded%3D0%3BentryX%3D0%3BentryY%3D1%3BentryDx%3D0%3BentryDy%3D0%3B%22%20edge%3D%221%22%20parent%3D%221%22%3E%3CmxGeometry%20width%3D%2250%22%20height%3D%2250%22%20relative%3D%221%22%20as%3D%22geometry%22%3E%3CmxPoint%20x%3D%22840%22%20y%3D%22560%22%20as%3D%22sourcePoint%22%2F%3E%3CmxPoint%20x%3D%22960%22%20y%3D%22560%22%20as%3D%22targetPoint%22%2F%3E%3C%2FmxGeometry%3E%3C%2FmxCell%3E%3C%2Froot%3E%3C%2FmxGraphModel%3E&lt;/span&gt;&lt;span style=&quot;color: rgba(0, 0, 0, 0); font-family: monospace; font-size: 0px; text-align: start; background-color: rgb(236, 236, 236);&quot;&gt;%3CmxGraphModel%3E%3Croot%3E%3CmxCell%20id%3D%220%22%2F%3E%3CmxCell%20id%3D%221%22%20parent%3D%220%22%2F%3E%3CmxCell%20id%3D%222%22%20value%3D%22%22%20style%3D%22endArrow%3Dnone%3Bhtml%3D1%3Brounded%3D0%3BentryX%3D0%3BentryY%3D1%3BentryDx%3D0%3BentryDy%3D0%3B%22%20edge%3D%221%22%20parent%3D%221%22%3E%3CmxGeometry%20width%3D%2250%22%20height%3D%2250%22%20relative%3D%221%22%20as%3D%22geometry%22%3E%3CmxPoint%20x%3D%22840%22%20y%3D%22560%22%20as%3D%22sourcePoint%22%2F%3E%3CmxPoint%20x%3D%22960%22%20y%3D%22560%22%20as%3D%22targetPoint%22%2F%3E%3C%2FmxGeometry%3E%3C%2FmxCell%3E%3C%2Froot%3E%3C%2FmxGraphModel%3E&lt;/span&gt;" style="endArrow=none;html=1;rounded=0;strokeWidth=2;" parent="1" edge="1">
          <mxGeometry width="50" height="50" relative="1" as="geometry">
            <mxPoint x="209" y="550" as="sourcePoint" />
            <mxPoint x="209.17000000000002" y="610" as="targetPoint" />
          </mxGeometry>
        </mxCell>
        <mxCell id="FBQwd6edi8yIUVr25xzs-165" value="&lt;span style=&quot;color: rgba(0, 0, 0, 0); font-family: monospace; font-size: 0px; text-align: start; background-color: rgb(236, 236, 236);&quot;&gt;%3CmxGraphModel%3E%3Croot%3E%3CmxCell%20id%3D%220%22%2F%3E%3CmxCell%20id%3D%221%22%20parent%3D%220%22%2F%3E%3CmxCell%20id%3D%222%22%20value%3D%22%22%20style%3D%22endArrow%3Dnone%3Bhtml%3D1%3Brounded%3D0%3BentryX%3D0%3BentryY%3D1%3BentryDx%3D0%3BentryDy%3D0%3B%22%20edge%3D%221%22%20parent%3D%221%22%3E%3CmxGeometry%20width%3D%2250%22%20height%3D%2250%22%20relative%3D%221%22%20as%3D%22geometry%22%3E%3CmxPoint%20x%3D%22840%22%20y%3D%22560%22%20as%3D%22sourcePoint%22%2F%3E%3CmxPoint%20x%3D%22960%22%20y%3D%22560%22%20as%3D%22targetPoint%22%2F%3E%3C%2FmxGeometry%3E%3C%2FmxCell%3E%3C%2Froot%3E%3C%2FmxGraphModel%3E&lt;/span&gt;&lt;span style=&quot;color: rgba(0, 0, 0, 0); font-family: monospace; font-size: 0px; text-align: start; background-color: rgb(236, 236, 236);&quot;&gt;%3CmxGraphModel%3E%3Croot%3E%3CmxCell%20id%3D%220%22%2F%3E%3CmxCell%20id%3D%221%22%20parent%3D%220%22%2F%3E%3CmxCell%20id%3D%222%22%20value%3D%22%22%20style%3D%22endArrow%3Dnone%3Bhtml%3D1%3Brounded%3D0%3BentryX%3D0%3BentryY%3D1%3BentryDx%3D0%3BentryDy%3D0%3B%22%20edge%3D%221%22%20parent%3D%221%22%3E%3CmxGeometry%20width%3D%2250%22%20height%3D%2250%22%20relative%3D%221%22%20as%3D%22geometry%22%3E%3CmxPoint%20x%3D%22840%22%20y%3D%22560%22%20as%3D%22sourcePoint%22%2F%3E%3CmxPoint%20x%3D%22960%22%20y%3D%22560%22%20as%3D%22targetPoint%22%2F%3E%3C%2FmxGeometry%3E%3C%2FmxCell%3E%3C%2Froot%3E%3C%2FmxGraphModel%3E&lt;/span&gt;" style="endArrow=none;html=1;rounded=0;strokeWidth=1;" parent="1" edge="1">
          <mxGeometry width="50" height="50" relative="1" as="geometry">
            <mxPoint x="210" y="550" as="sourcePoint" />
            <mxPoint x="140" y="550" as="targetPoint" />
          </mxGeometry>
        </mxCell>
        <mxCell id="FBQwd6edi8yIUVr25xzs-166" value="&lt;span style=&quot;color: rgba(0, 0, 0, 0); font-family: monospace; font-size: 0px; text-align: start; background-color: rgb(236, 236, 236);&quot;&gt;%3CmxGraphModel%3E%3Croot%3E%3CmxCell%20id%3D%220%22%2F%3E%3CmxCell%20id%3D%221%22%20parent%3D%220%22%2F%3E%3CmxCell%20id%3D%222%22%20value%3D%22%22%20style%3D%22endArrow%3Dnone%3Bhtml%3D1%3Brounded%3D0%3BentryX%3D0%3BentryY%3D1%3BentryDx%3D0%3BentryDy%3D0%3B%22%20edge%3D%221%22%20parent%3D%221%22%3E%3CmxGeometry%20width%3D%2250%22%20height%3D%2250%22%20relative%3D%221%22%20as%3D%22geometry%22%3E%3CmxPoint%20x%3D%22840%22%20y%3D%22560%22%20as%3D%22sourcePoint%22%2F%3E%3CmxPoint%20x%3D%22960%22%20y%3D%22560%22%20as%3D%22targetPoint%22%2F%3E%3C%2FmxGeometry%3E%3C%2FmxCell%3E%3C%2Froot%3E%3C%2FmxGraphModel%3E&lt;/span&gt;&lt;span style=&quot;color: rgba(0, 0, 0, 0); font-family: monospace; font-size: 0px; text-align: start; background-color: rgb(236, 236, 236);&quot;&gt;%3CmxGraphModel%3E%3Croot%3E%3CmxCell%20id%3D%220%22%2F%3E%3CmxCell%20id%3D%221%22%20parent%3D%220%22%2F%3E%3CmxCell%20id%3D%222%22%20value%3D%22%22%20style%3D%22endArrow%3Dnone%3Bhtml%3D1%3Brounded%3D0%3BentryX%3D0%3BentryY%3D1%3BentryDx%3D0%3BentryDy%3D0%3B%22%20edge%3D%221%22%20parent%3D%221%22%3E%3CmxGeometry%20width%3D%2250%22%20height%3D%2250%22%20relative%3D%221%22%20as%3D%22geometry%22%3E%3CmxPoint%20x%3D%22840%22%20y%3D%22560%22%20as%3D%22sourcePoint%22%2F%3E%3CmxPoint%20x%3D%22960%22%20y%3D%22560%22%20as%3D%22targetPoint%22%2F%3E%3C%2FmxGeometry%3E%3C%2FmxCell%3E%3C%2Froot%3E%3C%2FmxGraphModel%3E&lt;/span&gt;" style="endArrow=none;html=1;rounded=0;strokeWidth=2;" parent="1" edge="1">
          <mxGeometry width="50" height="50" relative="1" as="geometry">
            <mxPoint x="370" y="480" as="sourcePoint" />
            <mxPoint x="270" y="480" as="targetPoint" />
          </mxGeometry>
        </mxCell>
        <mxCell id="FBQwd6edi8yIUVr25xzs-167" value="&lt;span style=&quot;color: rgba(0, 0, 0, 0); font-family: monospace; font-size: 0px; text-align: start; background-color: rgb(236, 236, 236);&quot;&gt;%3CmxGraphModel%3E%3Croot%3E%3CmxCell%20id%3D%220%22%2F%3E%3CmxCell%20id%3D%221%22%20parent%3D%220%22%2F%3E%3CmxCell%20id%3D%222%22%20value%3D%22%22%20style%3D%22endArrow%3Dnone%3Bhtml%3D1%3Brounded%3D0%3BentryX%3D0%3BentryY%3D1%3BentryDx%3D0%3BentryDy%3D0%3B%22%20edge%3D%221%22%20parent%3D%221%22%3E%3CmxGeometry%20width%3D%2250%22%20height%3D%2250%22%20relative%3D%221%22%20as%3D%22geometry%22%3E%3CmxPoint%20x%3D%22840%22%20y%3D%22560%22%20as%3D%22sourcePoint%22%2F%3E%3CmxPoint%20x%3D%22960%22%20y%3D%22560%22%20as%3D%22targetPoint%22%2F%3E%3C%2FmxGeometry%3E%3C%2FmxCell%3E%3C%2Froot%3E%3C%2FmxGraphModel%3E&lt;/span&gt;&lt;span style=&quot;color: rgba(0, 0, 0, 0); font-family: monospace; font-size: 0px; text-align: start; background-color: rgb(236, 236, 236);&quot;&gt;%3CmxGraphModel%3E%3Croot%3E%3CmxCell%20id%3D%220%22%2F%3E%3CmxCell%20id%3D%221%22%20parent%3D%220%22%2F%3E%3CmxCell%20id%3D%222%22%20value%3D%22%22%20style%3D%22endArrow%3Dnone%3Bhtml%3D1%3Brounded%3D0%3BentryX%3D0%3BentryY%3D1%3BentryDx%3D0%3BentryDy%3D0%3B%22%20edge%3D%221%22%20parent%3D%221%22%3E%3CmxGeometry%20width%3D%2250%22%20height%3D%2250%22%20relative%3D%221%22%20as%3D%22geometry%22%3E%3CmxPoint%20x%3D%22840%22%20y%3D%22560%22%20as%3D%22sourcePoint%22%2F%3E%3CmxPoint%20x%3D%22960%22%20y%3D%22560%22%20as%3D%22targetPoint%22%2F%3E%3C%2FmxGeometry%3E%3C%2FmxCell%3E%3C%2Froot%3E%3C%2FmxGraphModel%3E&lt;/span&gt;" style="endArrow=none;html=1;rounded=0;" parent="1" edge="1">
          <mxGeometry width="50" height="50" relative="1" as="geometry">
            <mxPoint x="270" y="480" as="sourcePoint" />
            <mxPoint x="120" y="480" as="targetPoint" />
          </mxGeometry>
        </mxCell>
        <mxCell id="FBQwd6edi8yIUVr25xzs-168" value="35" style="text;html=1;align=center;verticalAlign=middle;whiteSpace=wrap;rounded=0;" parent="1" vertex="1">
          <mxGeometry x="310" y="450" width="30" height="30" as="geometry" />
        </mxCell>
        <mxCell id="FBQwd6edi8yIUVr25xzs-169" value="34&lt;div&gt;&lt;br&gt;&lt;/div&gt;" style="text;html=1;align=center;verticalAlign=middle;whiteSpace=wrap;rounded=0;" parent="1" vertex="1">
          <mxGeometry x="180" y="461" width="30" height="30" as="geometry" />
        </mxCell>
        <mxCell id="FBQwd6edi8yIUVr25xzs-171" value="&lt;span style=&quot;color: rgba(0, 0, 0, 0); font-family: monospace; font-size: 0px; text-align: start; background-color: rgb(236, 236, 236);&quot;&gt;%3CmxGraphModel%3E%3Croot%3E%3CmxCell%20id%3D%220%22%2F%3E%3CmxCell%20id%3D%221%22%20parent%3D%220%22%2F%3E%3CmxCell%20id%3D%222%22%20value%3D%22%22%20style%3D%22endArrow%3Dnone%3Bhtml%3D1%3Brounded%3D0%3BentryX%3D0%3BentryY%3D1%3BentryDx%3D0%3BentryDy%3D0%3B%22%20edge%3D%221%22%20parent%3D%221%22%3E%3CmxGeometry%20width%3D%2250%22%20height%3D%2250%22%20relative%3D%221%22%20as%3D%22geometry%22%3E%3CmxPoint%20x%3D%22840%22%20y%3D%22560%22%20as%3D%22sourcePoint%22%2F%3E%3CmxPoint%20x%3D%22960%22%20y%3D%22560%22%20as%3D%22targetPoint%22%2F%3E%3C%2FmxGeometry%3E%3C%2FmxCell%3E%3C%2Froot%3E%3C%2FmxGraphModel%3E&lt;/span&gt;&lt;span style=&quot;color: rgba(0, 0, 0, 0); font-family: monospace; font-size: 0px; text-align: start; background-color: rgb(236, 236, 236);&quot;&gt;%3CmxGraphModel%3E%3Croot%3E%3CmxCell%20id%3D%220%22%2F%3E%3CmxCell%20id%3D%221%22%20parent%3D%220%22%2F%3E%3CmxCell%20id%3D%222%22%20value%3D%22%22%20style%3D%22endArrow%3Dnone%3Bhtml%3D1%3Brounded%3D0%3BentryX%3D0%3BentryY%3D1%3BentryDx%3D0%3BentryDy%3D0%3B%22%20edge%3D%221%22%20parent%3D%221%22%3E%3CmxGeometry%20width%3D%2250%22%20height%3D%2250%22%20relative%3D%221%22%20as%3D%22geometry%22%3E%3CmxPoint%20x%3D%22840%22%20y%3D%22560%22%20as%3D%22sourcePoint%22%2F%3E%3CmxPoint%20x%3D%22960%22%20y%3D%22560%22%20as%3D%22targetPoint%22%2F%3E%3C%2FmxGeometry%3E%3C%2FmxCell%3E%3C%2Froot%3E%3C%2FmxGraphModel%3E&lt;/span&gt;" style="endArrow=none;html=1;rounded=0;strokeWidth=2;" parent="1" edge="1">
          <mxGeometry width="50" height="50" relative="1" as="geometry">
            <mxPoint x="270" y="480" as="sourcePoint" />
            <mxPoint x="270" y="530" as="targetPoint" />
          </mxGeometry>
        </mxCell>
        <mxCell id="FBQwd6edi8yIUVr25xzs-173" value="38" style="text;html=1;align=center;verticalAlign=middle;whiteSpace=wrap;rounded=0;" parent="1" vertex="1">
          <mxGeometry x="270" y="490" width="30" height="30" as="geometry" />
        </mxCell>
        <mxCell id="FBQwd6edi8yIUVr25xzs-180" value="14" style="text;html=1;align=center;verticalAlign=middle;whiteSpace=wrap;rounded=0;" parent="1" vertex="1">
          <mxGeometry x="280" y="200" width="40" height="30" as="geometry" />
        </mxCell>
        <mxCell id="j_DBNBZweOR7730Sv6lc-10" value="" style="endArrow=none;html=1;rounded=0;strokeWidth=2;" parent="1" edge="1">
          <mxGeometry width="50" height="50" relative="1" as="geometry">
            <mxPoint x="370" y="560" as="sourcePoint" />
            <mxPoint x="370" y="580" as="targetPoint" />
          </mxGeometry>
        </mxCell>
        <mxCell id="j_DBNBZweOR7730Sv6lc-19" value="Coffin" style="text;html=1;align=center;verticalAlign=middle;whiteSpace=wrap;rounded=0;rotation=-85;" parent="1" vertex="1">
          <mxGeometry x="950" y="330" width="50" height="40" as="geometry" />
        </mxCell>
        <mxCell id="j_DBNBZweOR7730Sv6lc-56" value="" style="curved=1;endArrow=none;html=1;rounded=0;endFill=0;entryX=0.367;entryY=1.121;entryDx=0;entryDy=0;entryPerimeter=0;exitX=0.5;exitY=0;exitDx=0;exitDy=0;" parent="1" source="FBQwd6edi8yIUVr25xzs-47" target="FBQwd6edi8yIUVr25xzs-65" edge="1">
          <mxGeometry width="50" height="50" relative="1" as="geometry">
            <mxPoint x="930" y="560" as="sourcePoint" />
            <mxPoint x="1000" y="410" as="targetPoint" />
            <Array as="points">
              <mxPoint x="940" y="490" />
              <mxPoint x="940" y="460" />
              <mxPoint x="940" y="350" />
              <mxPoint x="940" y="360" />
              <mxPoint x="940" y="310" />
            </Array>
          </mxGeometry>
        </mxCell>
        <mxCell id="FBQwd6edi8yIUVr25xzs-27" value="" style="endArrow=none;html=1;rounded=0;strokeWidth=2;" parent="1" edge="1">
          <mxGeometry width="50" height="50" relative="1" as="geometry">
            <mxPoint x="680" y="280" as="sourcePoint" />
            <mxPoint x="400" y="280" as="targetPoint" />
          </mxGeometry>
        </mxCell>
        <mxCell id="FBQwd6edi8yIUVr25xzs-56" value="" style="endArrow=none;html=1;rounded=0;strokeWidth=2;" parent="1" edge="1">
          <mxGeometry width="50" height="50" relative="1" as="geometry">
            <mxPoint x="400" y="210" as="sourcePoint" />
            <mxPoint x="710" y="210" as="targetPoint" />
          </mxGeometry>
        </mxCell>
        <mxCell id="FBQwd6edi8yIUVr25xzs-54" value="" style="endArrow=none;html=1;rounded=0;" parent="1" edge="1">
          <mxGeometry width="50" height="50" relative="1" as="geometry">
            <mxPoint x="710" y="210" as="sourcePoint" />
            <mxPoint x="980" y="210" as="targetPoint" />
          </mxGeometry>
        </mxCell>
        <mxCell id="FBQwd6edi8yIUVr25xzs-53" value="" style="endArrow=none;html=1;rounded=0;strokeWidth=2;" parent="1" edge="1">
          <mxGeometry width="50" height="50" relative="1" as="geometry">
            <mxPoint x="1000" y="370" as="sourcePoint" />
            <mxPoint x="980" y="210" as="targetPoint" />
          </mxGeometry>
        </mxCell>
        <mxCell id="FBQwd6edi8yIUVr25xzs-30" value="" style="endArrow=none;html=1;rounded=0;" parent="1" edge="1">
          <mxGeometry width="50" height="50" relative="1" as="geometry">
            <mxPoint x="840" y="280" as="sourcePoint" />
            <mxPoint x="720" y="280" as="targetPoint" />
          </mxGeometry>
        </mxCell>
        <mxCell id="FBQwd6edi8yIUVr25xzs-178" value="12" style="text;html=1;align=center;verticalAlign=middle;whiteSpace=wrap;rounded=0;" parent="1" vertex="1">
          <mxGeometry x="400" y="290" width="40" height="30" as="geometry" />
        </mxCell>
        <mxCell id="FBQwd6edi8yIUVr25xzs-58" value="11" style="text;html=1;align=center;verticalAlign=middle;whiteSpace=wrap;rounded=0;" parent="1" vertex="1">
          <mxGeometry x="530" y="290" width="40" height="30" as="geometry" />
        </mxCell>
        <mxCell id="FBQwd6edi8yIUVr25xzs-62" value="16" style="text;html=1;align=center;verticalAlign=middle;whiteSpace=wrap;rounded=0;" parent="1" vertex="1">
          <mxGeometry x="510" y="170" width="60" height="30" as="geometry" />
        </mxCell>
        <mxCell id="FBQwd6edi8yIUVr25xzs-61" value="15" style="text;html=1;align=center;verticalAlign=middle;whiteSpace=wrap;rounded=0;" parent="1" vertex="1">
          <mxGeometry x="820" y="170" width="60" height="30" as="geometry" />
        </mxCell>
        <mxCell id="FBQwd6edi8yIUVr25xzs-65" value="17" style="text;html=1;align=center;verticalAlign=middle;whiteSpace=wrap;rounded=0;" parent="1" vertex="1">
          <mxGeometry x="970" y="270" width="60" height="30" as="geometry" />
        </mxCell>
        <mxCell id="FBQwd6edi8yIUVr25xzs-179" value="13" style="text;html=1;align=center;verticalAlign=middle;whiteSpace=wrap;rounded=0;" parent="1" vertex="1">
          <mxGeometry x="340" y="320" width="40" height="30" as="geometry" />
        </mxCell>
        <mxCell id="FBQwd6edi8yIUVr25xzs-15" value="" style="endArrow=none;html=1;rounded=0;" parent="1" edge="1">
          <mxGeometry width="50" height="50" relative="1" as="geometry">
            <mxPoint x="320" y="130" as="sourcePoint" />
            <mxPoint x="320" y="320" as="targetPoint" />
          </mxGeometry>
        </mxCell>
        <mxCell id="oiR_8ByxjtIzJBIskn7z-1" value="&lt;font style=&quot;font-size: 16px;&quot;&gt;Mat&lt;/font&gt;" style="rounded=1;whiteSpace=wrap;html=1;rotation=90;fillColor=#d5e8d4;strokeColor=#82b366;" parent="1" vertex="1">
          <mxGeometry x="960" y="123.75" width="86" height="50" as="geometry" />
        </mxCell>
        <mxCell id="oiR_8ByxjtIzJBIskn7z-52" value="&lt;font style=&quot;font-size: 16px;&quot;&gt;Mat&lt;/font&gt;" style="rounded=1;whiteSpace=wrap;html=1;rotation=0;fillColor=#d5e8d4;strokeColor=#82b366;" parent="1" vertex="1">
          <mxGeometry x="840" y="340" width="100" height="50" as="geometry" />
        </mxCell>
        <mxCell id="j_DBNBZweOR7730Sv6lc-26" value="&lt;font style=&quot;font-size: 16px;&quot;&gt;Mat&lt;/font&gt;" style="rounded=1;whiteSpace=wrap;html=1;rotation=90;fillColor=#d5e8d4;strokeColor=#82b366;" parent="1" vertex="1">
          <mxGeometry x="733.5" y="601.5" width="116" height="50" as="geometry" />
        </mxCell>
        <mxCell id="j_DBNBZweOR7730Sv6lc-27" value="&lt;font style=&quot;font-size: 16px;&quot;&gt;Mat&lt;/font&gt;" style="rounded=1;whiteSpace=wrap;html=1;rotation=90;fillColor=#d5e8d4;strokeColor=#82b366;" parent="1" vertex="1">
          <mxGeometry x="378.25" y="595" width="118.5" height="50" as="geometry" />
        </mxCell>
        <mxCell id="j_DBNBZweOR7730Sv6lc-28" value="&lt;font style=&quot;font-size: 16px;&quot;&gt;Mat&lt;/font&gt;" style="rounded=1;whiteSpace=wrap;html=1;rotation=90;fillColor=#d5e8d4;strokeColor=#82b366;" parent="1" vertex="1">
          <mxGeometry x="397" y="493" width="81" height="50" as="geometry" />
        </mxCell>
        <mxCell id="j_DBNBZweOR7730Sv6lc-30" value="&lt;font style=&quot;font-size: 16px;&quot;&gt;Mat&lt;/font&gt;" style="rounded=1;whiteSpace=wrap;html=1;rotation=0;fillColor=#d5e8d4;strokeColor=#82b366;" parent="1" vertex="1">
          <mxGeometry x="80" y="560" width="60" height="50" as="geometry" />
        </mxCell>
        <mxCell id="FBQwd6edi8yIUVr25xzs-31" value="" style="endArrow=none;html=1;rounded=0;strokeWidth=2;exitX=1;exitY=0.25;exitDx=0;exitDy=0;" parent="1" source="FBQwd6edi8yIUVr25xzs-128" edge="1">
          <mxGeometry width="50" height="50" relative="1" as="geometry">
            <mxPoint x="840" y="470" as="sourcePoint" />
            <mxPoint x="840" y="280" as="targetPoint" />
          </mxGeometry>
        </mxCell>
        <mxCell id="FBQwd6edi8yIUVr25xzs-99" value="&lt;span style=&quot;color: rgba(0, 0, 0, 0); font-family: monospace; font-size: 0px; text-align: start; background-color: rgb(236, 236, 236);&quot;&gt;%3CmxGraphModel%3E%3Croot%3E%3CmxCell%20id%3D%220%22%2F%3E%3CmxCell%20id%3D%221%22%20parent%3D%220%22%2F%3E%3CmxCell%20id%3D%222%22%20value%3D%22%22%20style%3D%22endArrow%3Dnone%3Bhtml%3D1%3Brounded%3D0%3BentryX%3D0%3BentryY%3D1%3BentryDx%3D0%3BentryDy%3D0%3B%22%20edge%3D%221%22%20parent%3D%221%22%3E%3CmxGeometry%20width%3D%2250%22%20height%3D%2250%22%20relative%3D%221%22%20as%3D%22geometry%22%3E%3CmxPoint%20x%3D%22840%22%20y%3D%22560%22%20as%3D%22sourcePoint%22%2F%3E%3CmxPoint%20x%3D%22960%22%20y%3D%22560%22%20as%3D%22targetPoint%22%2F%3E%3C%2FmxGeometry%3E%3C%2FmxCell%3E%3C%2Froot%3E%3C%2FmxGraphModel%3E&lt;/span&gt;&lt;span style=&quot;color: rgba(0, 0, 0, 0); font-family: monospace; font-size: 0px; text-align: start; background-color: rgb(236, 236, 236);&quot;&gt;%3CmxGraphModel%3E%3Croot%3E%3CmxCell%20id%3D%220%22%2F%3E%3CmxCell%20id%3D%221%22%20parent%3D%220%22%2F%3E%3CmxCell%20id%3D%222%22%20value%3D%22%22%20style%3D%22endArrow%3Dnone%3Bhtml%3D1%3Brounded%3D0%3BentryX%3D0%3BentryY%3D1%3BentryDx%3D0%3BentryDy%3D0%3B%22%20edge%3D%221%22%20parent%3D%221%22%3E%3CmxGeometry%20width%3D%2250%22%20height%3D%2250%22%20relative%3D%221%22%20as%3D%22geometry%22%3E%3CmxPoint%20x%3D%22840%22%20y%3D%22560%22%20as%3D%22sourcePoint%22%2F%3E%3CmxPoint%20x%3D%22960%22%20y%3D%22560%22%20as%3D%22targetPoint%22%2F%3E%3C%2FmxGeometry%3E%3C%2FmxCell%3E%3C%2Froot%3E%3C%2FmxGraphModel%3E&lt;/span&gt;" style="endArrow=none;html=1;rounded=0;strokeWidth=2;entryX=0;entryY=1;entryDx=0;entryDy=0;" parent="1" target="FBQwd6edi8yIUVr25xzs-112" edge="1">
          <mxGeometry width="50" height="50" relative="1" as="geometry">
            <mxPoint x="460" y="560" as="sourcePoint" />
            <mxPoint x="560" y="560" as="targetPoint" />
          </mxGeometry>
        </mxCell>
        <mxCell id="FBQwd6edi8yIUVr25xzs-51" value="" style="endArrow=none;html=1;rounded=0;entryX=0;entryY=1;entryDx=0;entryDy=0;" parent="1" target="FBQwd6edi8yIUVr25xzs-50" edge="1">
          <mxGeometry width="50" height="50" relative="1" as="geometry">
            <mxPoint x="600" y="660" as="sourcePoint" />
            <mxPoint x="690" y="699.17" as="targetPoint" />
          </mxGeometry>
        </mxCell>
        <mxCell id="ZZRe91LmwjxZvAVJAlmy-11" value="" style="endArrow=none;html=1;rounded=0;" parent="1" target="oiR_8ByxjtIzJBIskn7z-17" edge="1">
          <mxGeometry width="50" height="50" relative="1" as="geometry">
            <mxPoint x="1010" y="560" as="sourcePoint" />
            <mxPoint x="1000" y="360" as="targetPoint" />
          </mxGeometry>
        </mxCell>
        <mxCell id="oiR_8ByxjtIzJBIskn7z-17" value="&lt;font style=&quot;font-size: 9px;&quot;&gt;Power&lt;/font&gt;&lt;div&gt;&lt;font style=&quot;font-size: 9px;&quot;&gt;Strip&lt;/font&gt;&lt;/div&gt;" style="rhombus;whiteSpace=wrap;html=1;fillColor=#f8cecc;strokeColor=#b85450;" parent="1" vertex="1">
          <mxGeometry x="990" y="510" width="50" height="50" as="geometry" />
        </mxCell>
        <mxCell id="oiR_8ByxjtIzJBIskn7z-34" value="Base" parent="0" />
        <mxCell id="FBQwd6edi8yIUVr25xzs-190" value="" style="ellipse;whiteSpace=wrap;html=1;" parent="oiR_8ByxjtIzJBIskn7z-34" vertex="1">
          <mxGeometry x="470" y="685" width="120" height="80" as="geometry" />
        </mxCell>
        <mxCell id="FBQwd6edi8yIUVr25xzs-194" value="" style="ellipse;whiteSpace=wrap;html=1;" parent="oiR_8ByxjtIzJBIskn7z-34" vertex="1">
          <mxGeometry x="160" y="740" width="100" height="60" as="geometry" />
        </mxCell>
        <mxCell id="FBQwd6edi8yIUVr25xzs-192" value="" style="ellipse;whiteSpace=wrap;html=1;" parent="oiR_8ByxjtIzJBIskn7z-34" vertex="1">
          <mxGeometry x="890" y="765" width="100" height="60" as="geometry" />
        </mxCell>
        <mxCell id="FBQwd6edi8yIUVr25xzs-196" value="" style="ellipse;whiteSpace=wrap;html=1;" parent="oiR_8ByxjtIzJBIskn7z-34" vertex="1">
          <mxGeometry x="600" y="755" width="100" height="60" as="geometry" />
        </mxCell>
        <mxCell id="FBQwd6edi8yIUVr25xzs-18" value="" style="ellipse;whiteSpace=wrap;html=1;" parent="oiR_8ByxjtIzJBIskn7z-34" vertex="1">
          <mxGeometry x="450" y="20" width="120" height="80" as="geometry" />
        </mxCell>
        <mxCell id="oiR_8ByxjtIzJBIskn7z-32" value="" style="rounded=0;whiteSpace=wrap;html=1;fillColor=#f5f5f5;fontColor=#333333;strokeColor=#666666;" parent="oiR_8ByxjtIzJBIskn7z-34" vertex="1">
          <mxGeometry x="10" y="85" width="130" height="340" as="geometry" />
        </mxCell>
        <mxCell id="oiR_8ByxjtIzJBIskn7z-26" value="&lt;font style=&quot;font-size: 14px;&quot;&gt;Halloween Maze&lt;/font&gt;&lt;div&gt;&lt;font style=&quot;font-size: 14px;&quot;&gt;Map&lt;/font&gt;&lt;/div&gt;&lt;div&gt;&lt;font style=&quot;font-size: 14px;&quot;&gt;ver. 9&lt;/font&gt;&lt;/div&gt;&lt;div&gt;&lt;font style=&quot;font-size: 14px;&quot;&gt;29 Oct 2025&lt;/font&gt;&lt;/div&gt;" style="text;html=1;align=center;verticalAlign=middle;whiteSpace=wrap;rounded=0;" parent="oiR_8ByxjtIzJBIskn7z-34" vertex="1">
          <mxGeometry y="9" width="130" height="60" as="geometry" />
        </mxCell>
        <mxCell id="oiR_8ByxjtIzJBIskn7z-12" value="" style="curved=1;endArrow=none;html=1;rounded=0;endFill=0;strokeWidth=5;" parent="oiR_8ByxjtIzJBIskn7z-34" edge="1">
          <mxGeometry width="50" height="50" relative="1" as="geometry">
            <mxPoint x="320" y="100" as="sourcePoint" />
            <mxPoint x="130" y="10" as="targetPoint" />
            <Array as="points">
              <mxPoint x="170" y="110" />
              <mxPoint x="130" y="50" />
            </Array>
          </mxGeometry>
        </mxCell>
        <mxCell id="FBQwd6edi8yIUVr25xzs-19" value="" style="ellipse;whiteSpace=wrap;html=1;" parent="oiR_8ByxjtIzJBIskn7z-34" vertex="1">
          <mxGeometry x="580" y="20" width="120" height="80" as="geometry" />
        </mxCell>
        <mxCell id="FBQwd6edi8yIUVr25xzs-21" value="" style="ellipse;whiteSpace=wrap;html=1;" parent="oiR_8ByxjtIzJBIskn7z-34" vertex="1">
          <mxGeometry x="720" y="20" width="120" height="80" as="geometry" />
        </mxCell>
        <mxCell id="FBQwd6edi8yIUVr25xzs-20" value="" style="ellipse;whiteSpace=wrap;html=1;" parent="oiR_8ByxjtIzJBIskn7z-34" vertex="1">
          <mxGeometry x="850" y="20" width="120" height="80" as="geometry" />
        </mxCell>
        <mxCell id="FBQwd6edi8yIUVr25xzs-25" value="" style="curved=1;endArrow=none;html=1;rounded=0;endFill=0;strokeWidth=5;" parent="oiR_8ByxjtIzJBIskn7z-34" edge="1">
          <mxGeometry width="50" height="50" relative="1" as="geometry">
            <mxPoint x="450" y="40" as="sourcePoint" />
            <mxPoint x="1000" y="100" as="targetPoint" />
            <Array as="points">
              <mxPoint x="440" y="100" />
              <mxPoint x="480" y="110" />
              <mxPoint x="550" y="110" />
              <mxPoint x="630" y="110" />
              <mxPoint x="760" y="120" />
            </Array>
          </mxGeometry>
        </mxCell>
        <mxCell id="FBQwd6edi8yIUVr25xzs-1" value="" style="curved=0;endArrow=none;html=1;rounded=1;endFill=0;strokeWidth=5;" parent="oiR_8ByxjtIzJBIskn7z-34" edge="1">
          <mxGeometry width="50" height="50" relative="1" as="geometry">
            <mxPoint x="1040" y="840" as="sourcePoint" />
            <mxPoint x="320" y="40" as="targetPoint" />
            <Array as="points">
              <mxPoint x="1040" y="730" />
              <mxPoint x="1010" y="250" />
              <mxPoint x="1000" y="200" />
              <mxPoint x="710" y="200" />
              <mxPoint x="460" y="200" />
              <mxPoint x="410" y="200" />
              <mxPoint x="380" y="190" />
              <mxPoint x="340" y="160" />
              <mxPoint x="320" y="110" />
              <mxPoint x="320" y="80" />
            </Array>
          </mxGeometry>
        </mxCell>
        <mxCell id="FBQwd6edi8yIUVr25xzs-6" value="" style="curved=1;endArrow=none;html=1;rounded=0;endFill=0;strokeWidth=5;" parent="oiR_8ByxjtIzJBIskn7z-34" edge="1">
          <mxGeometry width="50" height="50" relative="1" as="geometry">
            <mxPoint x="4.58" y="580" as="sourcePoint" />
            <mxPoint x="1040" y="750" as="targetPoint" />
            <Array as="points">
              <mxPoint x="4.58" y="730" />
              <mxPoint x="104.58" y="730" />
              <mxPoint x="410" y="730" />
              <mxPoint x="444.58" y="700" />
              <mxPoint x="460" y="670" />
              <mxPoint x="600" y="670" />
              <mxPoint x="630" y="700" />
              <mxPoint x="650" y="720" />
              <mxPoint x="660" y="740" />
              <mxPoint x="800" y="750" />
            </Array>
          </mxGeometry>
        </mxCell>
        <mxCell id="FBQwd6edi8yIUVr25xzs-193" value="Tree" style="text;html=1;align=center;verticalAlign=middle;whiteSpace=wrap;rounded=0;" parent="oiR_8ByxjtIzJBIskn7z-34" vertex="1">
          <mxGeometry x="910" y="780" width="60" height="30" as="geometry" />
        </mxCell>
        <mxCell id="FBQwd6edi8yIUVr25xzs-191" value="Bush" style="text;html=1;align=center;verticalAlign=middle;whiteSpace=wrap;rounded=0;" parent="oiR_8ByxjtIzJBIskn7z-34" vertex="1">
          <mxGeometry x="500" y="710" width="60" height="30" as="geometry" />
        </mxCell>
        <mxCell id="FBQwd6edi8yIUVr25xzs-195" value="Tree" style="text;html=1;align=center;verticalAlign=middle;whiteSpace=wrap;rounded=0;" parent="oiR_8ByxjtIzJBIskn7z-34" vertex="1">
          <mxGeometry x="170" y="755" width="60" height="30" as="geometry" />
        </mxCell>
        <mxCell id="FBQwd6edi8yIUVr25xzs-197" value="Bushes" style="text;html=1;align=center;verticalAlign=middle;whiteSpace=wrap;rounded=0;" parent="oiR_8ByxjtIzJBIskn7z-34" vertex="1">
          <mxGeometry x="620" y="770" width="60" height="30" as="geometry" />
        </mxCell>
        <mxCell id="oiR_8ByxjtIzJBIskn7z-28" value="Maze Wall (panels) are&amp;nbsp;&lt;span style=&quot;background-color: transparent; color: light-dark(rgb(0, 0, 0), rgb(255, 255, 255));&quot;&gt;numbered&lt;/span&gt;" style="text;html=1;align=center;verticalAlign=middle;whiteSpace=wrap;rounded=0;" parent="oiR_8ByxjtIzJBIskn7z-34" vertex="1">
          <mxGeometry x="50" y="380" width="80" height="30" as="geometry" />
        </mxCell>
        <mxCell id="FBQwd6edi8yIUVr25xzs-223" value="Laser" style="shape=or;whiteSpace=wrap;html=1;fillColor=#e1d5e7;strokeColor=#9673a6;" parent="oiR_8ByxjtIzJBIskn7z-34" vertex="1">
          <mxGeometry x="20" y="150" width="40" height="30" as="geometry" />
        </mxCell>
        <mxCell id="oiR_8ByxjtIzJBIskn7z-11" value="&lt;font style=&quot;font-size: 9px;&quot;&gt;Power&lt;/font&gt;&lt;div&gt;&lt;font style=&quot;font-size: 9px;&quot;&gt;Strip&lt;/font&gt;&lt;/div&gt;" style="rhombus;whiteSpace=wrap;html=1;fillColor=#f8cecc;strokeColor=#b85450;" parent="oiR_8ByxjtIzJBIskn7z-34" vertex="1">
          <mxGeometry x="10" y="310" width="50" height="50" as="geometry" />
        </mxCell>
        <mxCell id="oiR_8ByxjtIzJBIskn7z-4" value="&lt;font style=&quot;font-size: 16px;&quot;&gt;Mat&lt;/font&gt;" style="rounded=1;whiteSpace=wrap;html=1;rotation=90;fillColor=#d5e8d4;strokeColor=#82b366;" parent="oiR_8ByxjtIzJBIskn7z-34" vertex="1">
          <mxGeometry x="10" y="100" width="50" height="30" as="geometry" />
        </mxCell>
        <mxCell id="oiR_8ByxjtIzJBIskn7z-6" value="&lt;font style=&quot;font-size: 11px;&quot;&gt;FOG&lt;/font&gt;&lt;div&gt;&lt;font style=&quot;font-size: 11px;&quot;&gt;Machine&lt;/font&gt;&lt;/div&gt;" style="ellipse;shape=cloud;whiteSpace=wrap;html=1;fillColor=#f5f5f5;strokeColor=#666666;gradientColor=#b3b3b3;" parent="oiR_8ByxjtIzJBIskn7z-34" vertex="1">
          <mxGeometry x="64.5" y="300" width="70" height="50" as="geometry" />
        </mxCell>
        <mxCell id="FBQwd6edi8yIUVr25xzs-188" value="Bush" style="text;html=1;align=center;verticalAlign=middle;whiteSpace=wrap;rounded=0;" parent="oiR_8ByxjtIzJBIskn7z-34" vertex="1">
          <mxGeometry x="880" y="45" width="60" height="30" as="geometry" />
        </mxCell>
        <mxCell id="FBQwd6edi8yIUVr25xzs-187" value="Bush" style="text;html=1;align=center;verticalAlign=middle;whiteSpace=wrap;rounded=0;" parent="oiR_8ByxjtIzJBIskn7z-34" vertex="1">
          <mxGeometry x="750" y="45" width="60" height="30" as="geometry" />
        </mxCell>
        <mxCell id="FBQwd6edi8yIUVr25xzs-186" value="Bush" style="text;html=1;align=center;verticalAlign=middle;whiteSpace=wrap;rounded=0;" parent="oiR_8ByxjtIzJBIskn7z-34" vertex="1">
          <mxGeometry x="610" y="45" width="60" height="30" as="geometry" />
        </mxCell>
        <mxCell id="FBQwd6edi8yIUVr25xzs-185" value="Bush" style="text;html=1;align=center;verticalAlign=middle;whiteSpace=wrap;rounded=0;" parent="oiR_8ByxjtIzJBIskn7z-34" vertex="1">
          <mxGeometry x="480" y="45" width="60" height="30" as="geometry" />
        </mxCell>
        <mxCell id="FBQwd6edi8yIUVr25xzs-22" value="" style="ellipse;whiteSpace=wrap;html=1;" parent="oiR_8ByxjtIzJBIskn7z-34" vertex="1">
          <mxGeometry x="160" y="20" width="120" height="80" as="geometry" />
        </mxCell>
        <mxCell id="FBQwd6edi8yIUVr25xzs-184" value="Bush/Tree" style="text;html=1;align=center;verticalAlign=middle;whiteSpace=wrap;rounded=0;" parent="oiR_8ByxjtIzJBIskn7z-34" vertex="1">
          <mxGeometry x="190" y="45" width="60" height="30" as="geometry" />
        </mxCell>
        <mxCell id="oiR_8ByxjtIzJBIskn7z-56" value="" style="html=1;verticalLabelPosition=bottom;align=center;labelBackgroundColor=#ffffff;verticalAlign=top;strokeWidth=2;strokeColor=#d6b656;shadow=0;dashed=0;shape=mxgraph.ios7.icons.lightbulb;fillColor=#fff2cc;" parent="oiR_8ByxjtIzJBIskn7z-34" vertex="1">
          <mxGeometry x="70" y="90" width="20" height="30" as="geometry" />
        </mxCell>
        <mxCell id="oiR_8ByxjtIzJBIskn7z-57" value="Light Sources" style="text;html=1;align=center;verticalAlign=middle;whiteSpace=wrap;rounded=0;" parent="oiR_8ByxjtIzJBIskn7z-34" vertex="1">
          <mxGeometry x="54" y="130" width="90" height="30" as="geometry" />
        </mxCell>
        <mxCell id="oiR_8ByxjtIzJBIskn7z-77" value="&lt;font style=&quot;font-size: 11px;&quot;&gt;&lt;b style=&quot;&quot;&gt;controller&lt;/b&gt;&lt;/font&gt;&lt;div&gt;&lt;span style=&quot;font-size: 11px;&quot;&gt;&lt;b&gt;#&lt;/b&gt;&lt;/span&gt;&lt;/div&gt;" style="shape=process;whiteSpace=wrap;html=1;backgroundOutline=1;fillColor=#e1d5e7;strokeColor=#9673a6;" parent="oiR_8ByxjtIzJBIskn7z-34" vertex="1">
          <mxGeometry x="50" y="190" width="70" height="30" as="geometry" />
        </mxCell>
        <mxCell id="oiR_8ByxjtIzJBIskn7z-78" value="Controller includes&lt;div&gt;Laser Detector&lt;/div&gt;" style="text;html=1;align=center;verticalAlign=middle;whiteSpace=wrap;rounded=0;" parent="oiR_8ByxjtIzJBIskn7z-34" vertex="1">
          <mxGeometry x="10" y="230" width="110" height="30" as="geometry" />
        </mxCell>
        <mxCell id="oiR_8ByxjtIzJBIskn7z-81" value="" style="endArrow=none;html=1;rounded=0;" parent="oiR_8ByxjtIzJBIskn7z-34" edge="1">
          <mxGeometry width="50" height="50" relative="1" as="geometry">
            <mxPoint x="20" y="410" as="sourcePoint" />
            <mxPoint x="20" y="380" as="targetPoint" />
          </mxGeometry>
        </mxCell>
        <mxCell id="oiR_8ByxjtIzJBIskn7z-82" value="&lt;span style=&quot;color: rgba(0, 0, 0, 0); font-family: monospace; font-size: 0px; text-align: start; background-color: rgb(236, 236, 236);&quot;&gt;%3CmxGraphModel%3E%3Croot%3E%3CmxCell%20id%3D%220%22%2F%3E%3CmxCell%20id%3D%221%22%20parent%3D%220%22%2F%3E%3CmxCell%20id%3D%222%22%20value%3D%22%22%20style%3D%22endArrow%3Dnone%3Bhtml%3D1%3Brounded%3D0%3BentryX%3D0%3BentryY%3D1%3BentryDx%3D0%3BentryDy%3D0%3B%22%20edge%3D%221%22%20parent%3D%221%22%3E%3CmxGeometry%20width%3D%2250%22%20height%3D%2250%22%20relative%3D%221%22%20as%3D%22geometry%22%3E%3CmxPoint%20x%3D%22840%22%20y%3D%22560%22%20as%3D%22sourcePoint%22%2F%3E%3CmxPoint%20x%3D%22960%22%20y%3D%22560%22%20as%3D%22targetPoint%22%2F%3E%3C%2FmxGeometry%3E%3C%2FmxCell%3E%3C%2Froot%3E%3C%2FmxGraphModel%3E&lt;/span&gt;&lt;span style=&quot;color: rgba(0, 0, 0, 0); font-family: monospace; font-size: 0px; text-align: start; background-color: rgb(236, 236, 236);&quot;&gt;%3CmxGraphModel%3E%3Croot%3E%3CmxCell%20id%3D%220%22%2F%3E%3CmxCell%20id%3D%221%22%20parent%3D%220%22%2F%3E%3CmxCell%20id%3D%222%22%20value%3D%22%22%20style%3D%22endArrow%3Dnone%3Bhtml%3D1%3Brounded%3D0%3BentryX%3D0%3BentryY%3D1%3BentryDx%3D0%3BentryDy%3D0%3B%22%20edge%3D%221%22%20parent%3D%221%22%3E%3CmxGeometry%20width%3D%2250%22%20height%3D%2250%22%20relative%3D%221%22%20as%3D%22geometry%22%3E%3CmxPoint%20x%3D%22840%22%20y%3D%22560%22%20as%3D%22sourcePoint%22%2F%3E%3CmxPoint%20x%3D%22960%22%20y%3D%22560%22%20as%3D%22targetPoint%22%2F%3E%3C%2FmxGeometry%3E%3C%2FmxCell%3E%3C%2Froot%3E%3C%2FmxGraphModel%3E&lt;/span&gt;" style="endArrow=none;html=1;rounded=0;strokeWidth=2;" parent="oiR_8ByxjtIzJBIskn7z-34" edge="1">
          <mxGeometry width="50" height="50" relative="1" as="geometry">
            <mxPoint x="40.02000000000001" y="380" as="sourcePoint" />
            <mxPoint x="40" y="410" as="targetPoint" />
          </mxGeometry>
        </mxCell>
        <mxCell id="oiR_8ByxjtIzJBIskn7z-90" value="CANDY" style="ellipse;whiteSpace=wrap;html=1;aspect=fixed;fillColor=#e51400;fontColor=#ffffff;strokeColor=#B20000;fillStyle=solid;" parent="oiR_8ByxjtIzJBIskn7z-34" vertex="1">
          <mxGeometry x="365" y="85" width="50" height="50" as="geometry" />
        </mxCell>
        <mxCell id="oiR_8ByxjtIzJBIskn7z-92" value="Not to Exact Scale!" style="text;html=1;align=center;verticalAlign=middle;whiteSpace=wrap;rounded=0;fontStyle=1;fontSize=16;" parent="oiR_8ByxjtIzJBIskn7z-34" vertex="1">
          <mxGeometry x="10" y="825" width="160" height="10" as="geometry" />
        </mxCell>
        <mxCell id="ZZRe91LmwjxZvAVJAlmy-2" value="" style="html=1;verticalLabelPosition=bottom;align=center;labelBackgroundColor=#ffffff;verticalAlign=top;strokeWidth=2;strokeColor=#C73500;shadow=0;dashed=0;shape=mxgraph.ios7.icons.lightbulb;fillColor=#fa6800;fontColor=#000000;" parent="oiR_8ByxjtIzJBIskn7z-34" vertex="1">
          <mxGeometry x="109" y="90" width="20" height="30" as="geometry" />
        </mxCell>
        <mxCell id="ZZRe91LmwjxZvAVJAlmy-4" value="Batt" style="text;html=1;whiteSpace=wrap;strokeColor=none;fillColor=none;align=center;verticalAlign=middle;rounded=0;" parent="oiR_8ByxjtIzJBIskn7z-34" vertex="1">
          <mxGeometry x="62" y="114" width="35" height="30" as="geometry" />
        </mxCell>
        <mxCell id="ZZRe91LmwjxZvAVJAlmy-5" value="Mains" style="text;html=1;whiteSpace=wrap;strokeColor=none;fillColor=none;align=center;verticalAlign=middle;rounded=0;" parent="oiR_8ByxjtIzJBIskn7z-34" vertex="1">
          <mxGeometry x="99.5" y="114" width="35" height="30" as="geometry" />
        </mxCell>
        <mxCell id="ZZRe91LmwjxZvAVJAlmy-6" value="" style="html=1;verticalLabelPosition=bottom;align=center;labelBackgroundColor=#ffffff;verticalAlign=top;strokeWidth=2;strokeColor=#C73500;shadow=0;dashed=0;shape=mxgraph.ios7.icons.lightbulb;fillColor=#fa6800;fontColor=#000000;" parent="oiR_8ByxjtIzJBIskn7z-34" vertex="1">
          <mxGeometry x="140" y="610" width="20" height="30" as="geometry" />
        </mxCell>
        <mxCell id="ZZRe91LmwjxZvAVJAlmy-7" value="" style="html=1;verticalLabelPosition=bottom;align=center;labelBackgroundColor=#ffffff;verticalAlign=top;strokeWidth=2;strokeColor=#C73500;shadow=0;dashed=0;shape=mxgraph.ios7.icons.lightbulb;fillColor=#fa6800;fontColor=#000000;" parent="oiR_8ByxjtIzJBIskn7z-34" vertex="1">
          <mxGeometry x="89" y="540" width="20" height="30" as="geometry" />
        </mxCell>
        <mxCell id="ZZRe91LmwjxZvAVJAlmy-10" value="&lt;font style=&quot;font-size: 9px;&quot;&gt;Power&lt;/font&gt;&lt;div&gt;&lt;font style=&quot;font-size: 9px;&quot;&gt;Strip&lt;/font&gt;&lt;/div&gt;" style="rhombus;whiteSpace=wrap;html=1;fillColor=#f8cecc;strokeColor=#b85450;" parent="oiR_8ByxjtIzJBIskn7z-34" vertex="1">
          <mxGeometry x="250" y="420" width="50" height="50" as="geometry" />
        </mxCell>
        <mxCell id="ZZRe91LmwjxZvAVJAlmy-12" value="" style="shape=mxgraph.signs.tech.cell_phone;html=1;pointerEvents=1;fillColor=#ffcd28;strokeColor=#d79b00;verticalLabelPosition=bottom;verticalAlign=top;align=center;sketch=0;gradientColor=#ffa500;" parent="oiR_8ByxjtIzJBIskn7z-34" vertex="1">
          <mxGeometry x="26.5" y="270" width="17" height="28" as="geometry" />
        </mxCell>
        <mxCell id="ZZRe91LmwjxZvAVJAlmy-14" value="&lt;font style=&quot;font-size: 11px;&quot;&gt;Wireless Remote&lt;/font&gt;&lt;div&gt;&lt;font style=&quot;font-size: 11px;&quot;&gt;Controled&lt;/font&gt;&lt;/div&gt;" style="text;html=1;whiteSpace=wrap;strokeColor=none;fillColor=none;align=center;verticalAlign=middle;rounded=0;" parent="oiR_8ByxjtIzJBIskn7z-34" vertex="1">
          <mxGeometry x="40" y="268" width="100" height="30" as="geometry" />
        </mxCell>
      </root>
    </mxGraphModel>
  </diagram>
</mxfile>
